<?xml version="1.0" encoding="UTF-8" standalone="no"?>
<!-- Created with Inkscape (http://www.inkscape.org/) -->

<svg
   version="1.1"
   id="svg2"
   width="567"
   height="567"
   viewBox="0 0 567 567"
   sodipodi:docname="pancito_logo.svg"
   xml:space="preserve"
   inkscape:version="1.2.1 (9c6d41e410, 2022-07-14, custom)"
   inkscape:export-filename="pancito_logo_transparent.png"
   inkscape:export-xdpi="96"
   inkscape:export-ydpi="96"
   xmlns:inkscape="http://www.inkscape.org/namespaces/inkscape"
   xmlns:sodipodi="http://sodipodi.sourceforge.net/DTD/sodipodi-0.dtd"
   xmlns="http://www.w3.org/2000/svg"
   xmlns:svg="http://www.w3.org/2000/svg"><defs
     id="defs6" /><sodipodi:namedview
     id="namedview4"
     pagecolor="#505050"
     bordercolor="#ff17ff"
     borderopacity="1"
     inkscape:showpageshadow="0"
     inkscape:pageopacity="0"
     inkscape:pagecheckerboard="1"
     inkscape:deskcolor="#505050"
     showgrid="false"
     inkscape:zoom="0.87477954"
     inkscape:cx="436.68145"
     inkscape:cy="1054.5514"
     inkscape:window-width="1920"
     inkscape:window-height="1051"
     inkscape:window-x="1280"
     inkscape:window-y="0"
     inkscape:window-maximized="1"
     inkscape:current-layer="layer5" /><g
     inkscape:groupmode="layer"
     id="layer3"
     inkscape:label="background-silueta"
     transform="translate(33.304184,641.69247)"
     style="display:inline"><g
       id="g12585"><path
         style="fill:#fbf3de;fill-opacity:1;stroke-width:0.216054;stroke-miterlimit:4.9;paint-order:stroke markers fill"
         d="m 482.42899,404.19728 c -0.37684,-0.41641 -0.55981,-1.79994 -0.48505,-3.66779 0.10335,-2.58227 0.45871,-3.02251 1.87578,-2.32375 0.93594,0.46151 2.43781,1.56977 2.7285,2.01342 0.33502,0.5113 0.1293,0.87851 -1.37174,2.44863 -1.69534,1.77335 -2.24824,2.08115 -2.74749,1.52949 z"
         id="path11753"
         transform="translate(-33.304184,-641.69247)" /><path
         style="fill:#fbf3de;fill-opacity:1;stroke-width:0.216054;stroke-miterlimit:4.9;paint-order:stroke markers fill"
         d="m 482.42899,404.19728 c -0.37684,-0.41641 -0.55981,-1.79994 -0.48505,-3.66779 0.10335,-2.58227 0.45871,-3.02251 1.87578,-2.32375 0.93594,0.46151 2.43781,1.56977 2.7285,2.01342 0.33502,0.5113 0.1293,0.87851 -1.37174,2.44863 -1.69534,1.77335 -2.24824,2.08115 -2.74749,1.52949 z"
         id="path11755"
         transform="translate(-33.304184,-641.69247)" /><path
         style="fill:#fbf3de;fill-opacity:1;stroke-width:0.216054;stroke-miterlimit:4.9;paint-order:stroke markers fill"
         d="m 482.42899,404.19728 c -0.37684,-0.41641 -0.55981,-1.79994 -0.48505,-3.66779 0.10335,-2.58227 0.45871,-3.02251 1.87578,-2.32375 0.93594,0.46151 2.43781,1.56977 2.7285,2.01342 0.33502,0.5113 0.1293,0.87851 -1.37174,2.44863 -1.69534,1.77335 -2.24824,2.08115 -2.74749,1.52949 z"
         id="path11757"
         transform="translate(-33.304184,-641.69247)" /><path
         style="fill:#fbf3de;fill-opacity:1;stroke-width:3.45687;stroke-miterlimit:4.9;paint-order:stroke markers fill"
         d="m 207.96625,-93.723852 c -61.2718,-10.754228 -96.4655,-27.431138 -129.216297,-61.230538 -35.5336,-36.67134 -56.3268,-83.22842 -70.7435997,-158.3989 -7.89989992,-41.19056 -9.00139992,-98.45371 -2.4793,-128.89125 18.9655997,-88.50941 82.5747997,-145.32358 187.1214967,-167.13248 116.3836,-24.27811 238.8276,0.88306 287.2087,59.01889 17.2654,20.74645 22.154,35.04477 22.0151,64.38992 -0.1088,22.98615 -0.6662,25.6534 -13.1202,62.78106 -15.8731,47.32062 -20.8155,71.78516 -19.1159,94.62289 0.6875,9.2384 1.7883,17.33541 2.4462,17.99334 2.9846,2.98464 13.60215,-1.10632 17.35417,-7.9773 l 4.65403,-8.52281 -3.85286,11.10124 c -2.0737,5.97496 -1.76977,17.23902 -2.26857,21.32576 -0.6538,5.3569 1.43593,8.32604 3.80473,8.32604 1.8071,0 4.5806,-4.22956 4.5806,-5.6966 0,-1.46702 0.6333,-2.03395 1.4074,-1.25984 0.7742,0.77412 -8.1927,12.4782 -9.4965,16.21823 -1.8568,5.32644 4.07468,-3.50163 3.5372,-0.89927 -1.85546,8.98368 -0.45008,11.40065 -0.0677,15.20411 1.21704,12.1054 1.65237,6.91342 2.70547,12.2227 0.376,1.89564 4.97752,5.37696 5.12752,29.88863 0.2016,32.96858 -0.1518,36.06647 -5.3123,46.55129 -17.202,34.94995 -65.6922,62.84321 -133.9354,77.044228 -29.5082,6.1405 -124.4928,8.21076 -152.354,3.32066 z"
         id="path11679"
         sodipodi:nodetypes="ssssssssssscssssssssscsss" /></g></g><g
     inkscape:groupmode="layer"
     id="layer1"
     inkscape:label="background"
     style="display:none"><g
       id="g9135"
       transform="translate(1.0852009,-2.0194082)"><rect
         style="fill:#fbf3de;fill-opacity:1;stroke-width:1.32711;stroke-miterlimit:4.9;paint-order:stroke markers fill"
         id="rect7995"
         width="567.14783"
         height="567.82343"
         x="-0.23543228"
         y="2.737375" /><path
         style="display:inline;fill:#fdfdfa"
         d="M -0.5350882,286.6009 V 3.1008966 H 282.96491 566.46494 V 286.6009 v 283.5 H 282.96491 -0.5350882 Z M 348.46494,555.11888 c 5.775,-0.64324 16.8,-2.07429 24.5,-3.1801 7.7,-1.1058 19.175,-3.08145 25.5,-4.39032 6.325,-1.30886 15.775,-3.542 21,-4.96252 5.225,-1.42052 12.65,-3.63924 16.5,-4.93048 3.85,-1.29124 9.475,-3.32366 12.5,-4.51649 3.025,-1.19282 7.75,-3.22031 10.5,-4.50553 2.75,-1.28521 8.375,-3.97806 12.5,-5.98411 4.125,-2.00604 9.3,-4.63759 11.5,-5.84789 2.2,-1.2103 4.1443,-2.52101 4.3207,-2.91268 0.1764,-0.39168 1.9764,-1.73297 4,-2.98065 2.0236,-1.24767 4.5793,-2.94955 5.6793,-3.78194 1.1,-0.8324 6.5,-6.0161 12,-11.51936 6.3538,-6.35761 11.5496,-12.65416 14.25,-17.26907 2.3375,-3.99473 4.25,-7.7843 4.25,-8.42126 0,-0.63695 0.6556,-1.88258 1.457,-2.76805 0.8013,-0.88547 2.0255,-4.97091 2.7204,-9.07874 0.7685,-4.54299 1.2259,-15.69527 1.1676,-28.46879 -0.064,-13.93931 -0.5786,-23.376 -1.5316,-28.06673 -0.7896,-3.8867 -1.2572,-7.602 -1.0391,-8.25623 0.2181,-0.65423 0.6956,-1.00467 1.0611,-0.77876 0.3655,0.2259 0.6646,-0.69095 0.6646,-2.03747 0,-1.68078 -0.6826,-2.61952 -2.1777,-2.99475 -1.1977,-0.30061 -2.4231,-1.18628 -2.7231,-1.96816 -0.3001,-0.78188 -0.1568,-2.42877 0.3183,-3.65975 0.4752,-1.23098 1.6509,-4.13839 2.6128,-6.4609 0.9618,-2.32251 2.0568,-4.03238 2.4333,-3.79972 0.3765,0.23267 0.6512,-0.5671 0.6104,-1.77725 -0.041,-1.21015 -0.6456,-2.56522 -1.3442,-3.01126 -0.6986,-0.44604 -2.1299,-0.53814 -3.1806,-0.20466 -1.7632,0.55965 -1.6892,-0.019 0.9622,-7.51659 1.5798,-4.4676 3.2865,-8.6505 3.7926,-9.29534 0.5061,-0.64484 1.1894,-2.52243 1.5184,-4.17243 0.329,-1.65 0.3695,-2.48527 0.09,-1.85616 -0.2796,0.62911 -1.3171,0.93233 -2.3057,0.67381 -1.3783,-0.36043 -2.4457,0.85502 -4.5775,5.21221 -2.0005,4.0889 -3.021,5.302 -3.6393,4.3262 -0.713,-1.1252 -0.8619,-1.11488 -0.8746,0.0606 -0.01,0.77916 -0.2512,1.1807 -0.5396,0.8923 -0.2884,-0.28839 0.1166,-2.98543 0.9001,-5.9934 0.9478,-3.63898 1.2654,-8.455 0.949,-14.39231 -0.3693,-6.93169 -0.2144,-8.58848 0.6942,-7.42326 1.0026,1.28566 1.0886,1.24824 0.6022,-0.26185 -0.3121,-0.96902 -0.072,-2.84833 0.5326,-4.17626 0.605,-1.32792 0.7994,-3.6123 0.4319,-5.0764 -0.5593,-2.22853 -0.9119,-2.45962 -2.1656,-1.41919 -0.8236,0.68355 -2.4481,3.45273 -3.6101,6.15375 -1.6446,3.82292 -3.3941,5.78116 -7.8966,8.83875 -5.0447,3.4258 -5.9687,3.74303 -7.2296,2.48212 -0.7951,-0.79512 -1.7964,-1.12961 -2.2251,-0.7433 -0.4286,0.38631 -0.4454,0.12337 -0.037,-0.58432 0.4082,-0.70768 0.4404,-3.07209 0.072,-5.25425 -0.3686,-2.18215 -0.9679,-3.78676 -1.3317,-3.56579 -0.3637,0.22097 -0.8065,-5.28961 -0.984,-12.24575 -0.2079,-8.14705 0.2565,-16.56172 1.3051,-23.64751 0.8954,-6.05 3.0028,-16.175 4.6832,-22.5 1.6805,-6.325 3.4104,-12.85 3.8444,-14.5 0.434,-1.65 1.3213,-4.575 1.9719,-6.5 0.6506,-1.925 1.58,-4.4 2.0653,-5.5 0.4853,-1.1 1.8124,-4.7 2.949,-8 1.1366,-3.3 3.6738,-10.95 5.6383,-17 1.9644,-6.05 4.3932,-13.7 5.3974,-17 1.0041,-3.3 2.5933,-9.375 3.5315,-13.5 0.9598,-4.22002 1.9228,-13.80084 2.2019,-21.90748 0.3152,-9.15527 0.048,-16.99303 -0.734,-21.5 -0.6764,-3.90088 -1.5888,-7.99252 -2.0274,-9.09252 -0.4386,-1.1 -1.7883,-4.86804 -2.9994,-8.37343 -1.2111,-3.50539 -3.5076,-8.58769 -5.1033,-11.29401 -1.5956,-2.7063 -2.9011,-5.14475 -2.9011,-5.41876 0,-0.27401 -0.4625,-1.04171 -1.0277,-1.706 -0.5652,-0.66428 -3.0552,-3.907793 -5.5333,-7.207793 -2.4781,-3.3 -8.1504,-9.4875 -12.6052,-13.75 -4.4549,-4.2625 -8.2841,-7.75 -8.5095,-7.75 -0.2253,0 -2.8463,-1.8 -5.8243,-4 -2.9781,-2.2 -5.898,-4 -6.4887,-4 -0.5908,0 -1.31,-0.61478 -1.5984,-1.36618 -0.2883,-0.7514 -2.294,-2.2139 -4.4571,-3.25 -2.1631,-1.0361 -3.9381,-2.22132 -3.9444,-2.63382 -0.01,-0.4125 -0.6925,-0.75 -1.525,-0.75 -0.8325,0 -2.52,-0.5625 -3.75,-1.25 -1.23,-0.6875 -2.4614,-1.475 -2.7364,-1.75 -0.275,-0.275 -2.525,-1.45694 -5,-2.62653 -2.475,-1.16959 -8.1,-3.58152 -12.5,-5.35985 -4.4,-1.77833 -8.9,-3.60436 -10,-4.05784 -1.1,-0.45348 -4.7711,-1.76865 -8.158,-2.9226 -3.3869,-1.15394 -11.7119,-3.46733 -18.5,-5.14086 -6.7881,-1.67352 -18.6132,-4.13675 -26.278,-5.47383 -7.6648,-1.33708 -21.1648,-3.15692 -30,-4.04407 -12.749,-1.28014 -22.5646,-1.49448 -47.56403,-1.03863 -25.85182,0.47139 -34.72753,1.02241 -49.5,3.07304 -9.9,1.37426 -22.275,3.41633 -27.5,4.53794 -5.225,1.1216 -12.875,2.76724 -17,3.65698 -4.125,0.88973 -11.1,2.74543 -15.5,4.12377 -4.4,1.37835 -13.175,4.28818 -19.5,6.46631 -6.325,2.17812 -13.3,4.76231 -15.5,5.74264 -2.2,0.98033 -6.925,3.06109 -10.5,4.62391 -3.575,1.56282 -8.075,3.77378 -10,4.91325 -1.925,1.13946 -4.85,2.73307 -6.5,3.54137 -1.65,0.80829 -7.275,4.37719 -12.5,7.93089 -5.225,3.5537 -9.85986,7.04466 -10.29969,7.75769 -0.43983,0.71303 -1.26151,1.29642 -1.82596,1.29642 -0.56444,0 -3.59399,1.97582 -6.73232,4.39071 -3.138338,2.4149 -8.291048,6.97571 -11.450478,10.13513 -3.15943,3.159433 -7.64502,8.002443 -9.96798,10.762253 -2.32296,2.75981 -5.45623,6.30956 -6.96281,7.88834 -1.50658,1.57878 -4.31908,5.21644 -6.25,8.08369 -1.93092,2.86725 -3.51076,5.78169 -3.51076,6.47653 0,0.69484 -0.41153,1.26335 -0.9145,1.26335 -0.50298,0 -2.07798,2.08168 -3.5,4.62595 -1.42203,2.54428 -2.5855,5.24428 -2.5855,6 0,0.75573 -0.39752,1.37405 -0.88337,1.37405 -0.48585,0 -1.13195,0.7875 -1.43577,1.75 -0.30382,0.9625 -1.59381,3.55 -2.86663,5.75 -1.27283,2.2 -2.62645,4.14157 -3.00805,4.31461 -0.38161,0.17303 -0.41763,1.03435 -0.0801,1.91404 0.3595,0.93685 0.19974,1.34356 -0.38564,0.98177 -0.56596,-0.34978 -0.92224,0.33806 -0.82149,1.58596 0.0979,1.21199 -0.11342,2.42862 -0.46952,2.70362 -0.35609,0.275 -1.6379,3.12754 -2.84845,6.33898 -1.21056,3.21145 -2.20379,6.58645 -2.20718,7.5 -0.003,0.91356 -0.69967,2.99098 -1.54729,4.61648 -0.84762,1.62551 -1.78383,5.00051 -2.08046,7.5 -0.29663,2.4995 -1.20952,6.32655 -2.02864,8.50457 -0.81913,2.17801 -2.41876,10.50301 -3.55473,18.5 -1.67868,11.81754 -2.07378,19.78262 -2.11013,42.53997 -0.0265,16.61583 0.44237,31.45591 1.15333,36.5 0.65894,4.675 1.91611,13.225 2.79372,19 0.87762,5.775 2.94644,17.25 4.59739,25.5 1.65095,8.25 3.36238,17.25 3.80317,20 0.44079,2.75 1.51657,6.67305 2.39062,8.71788 0.87405,2.04484 1.58918,4.83078 1.58918,6.19098 0,1.36021 0.39089,2.71469 0.86865,3.00996 0.47775,0.29527 1.17059,2.42509 1.53963,4.73294 0.36904,2.30785 2.71801,10.30532 5.21993,17.77216 2.50193,7.46685 5.4091,15.0643 6.46037,16.88324 1.05128,1.81894 1.91142,3.8431 1.91142,4.49813 0,0.65503 3.19023,7.60431 7.0894,15.44284 3.89916,7.83853 7.49916,14.25187 8,14.25187 0.50083,0 0.9106,0.66087 0.9106,1.46861 0,0.80773 1.9125,4.29523 4.25,7.75 2.3375,3.45476 4.79673,6.86026 5.46496,7.56778 0.66823,0.70751 2.00275,2.62001 2.96561,4.25 0.96285,1.62998 2.10362,2.96361 2.53504,2.96361 0.43141,0 0.78439,0.67424 0.78439,1.49832 0,0.82407 6.531868,8.02407 14.515268,16 7.9834,7.97592 14.91081,14.50168 15.39425,14.50168 0.48343,0 2.29027,1.31835 4.01519,2.92967 1.72492,1.61131 4.47251,3.52116 6.10575,4.24411 1.63325,0.72294 2.96954,1.61155 2.96954,1.97469 0,0.36313 5.35867,3.85328 11.90816,7.75588 6.54948,3.90261 12.42122,7.09565 13.0483,7.09565 0.62708,0 3.00294,0.9 5.27968,2 2.27673,1.1 4.73,2 5.45169,2 0.72169,0 1.31217,0.45 1.31217,1 0,0.55 0.78945,1 1.75433,1 0.96489,0 4.90239,1.16092 8.75,2.57983 3.84762,1.41891 9.38013,3.21891 12.29446,4 2.91433,0.78109 6.17683,1.42017 7.25,1.42017 1.07317,0 1.95121,0.45 1.95121,1 0,0.55 1.43055,1 3.179,1 1.74845,0 4.56095,0.43603 6.25,0.96896 1.68905,0.53293 8.246,1.84263 14.571,2.91044 6.325,1.06782 15.775,2.46372 21,3.102 5.225,0.63828 15.575,1.50718 23,1.9309 7.425,0.42372 24.525,0.65898 37.99997,0.52281 13.475,-0.13618 29.2251,-0.77388 35.0001,-1.41713 z"
         id="path7933" /></g></g><g
     inkscape:groupmode="layer"
     id="layer4"
     inkscape:label="espigas-fondo"
     transform="translate(8.7676387,-13.605623)"
     style="display:inline"><path
       style="fill:#edb637;fill-opacity:1"
       d="m 44.816749,278.13409 c -0.22327,-0.6698 1.12686,-3.9296 3.00027,-7.244 3.33408,-5.8986 3.41185,-6.3016 3.67242,-19.0322 0.20813,-10.168 0.713,-14.2061 2.3137,-18.506 1.12612,-3.025 2.36684,-6.2875 2.75717,-7.25 0.61154,-1.508 0.10716,-1.7491 -3.64731,-1.7433 -4.35699,0.01 -4.35699,0.01 -8.1656,7 -2.09474,3.8463 -4.20568,6.9933 -4.69098,6.9933 -0.48531,0 -1.15699,-0.4443 -1.49262,-0.9874 -0.33564,-0.5431 1.17552,-4.4806 3.35813,-8.75 2.18261,-4.2694 4.51938,-9.5626 5.19283,-11.7626 0.67344,-2.2 2.57446,-6.025 4.22448,-8.5 1.65002,-2.475 4.82999,-6.4125 7.06661,-8.75 3.5134,-3.6719 3.7832,-4.25 1.98337,-4.25 -1.14577,0 -3.45779,-0.2749 -5.13782,-0.6109 -2.91655,-0.5833 -3.19238,-0.338 -6.10262,5.4271 -1.67641,3.321 -3.54729,6.3467 -4.15752,6.7238 -0.61023,0.3772 -1.53743,0.2578 -2.06044,-0.2652 -0.60124,-0.6012 0.30818,-3.4927 2.47301,-7.8629 1.88317,-3.8015 4.89593,-9.9909 6.69504,-13.7542 2.1185,-4.4314 5.48698,-9.0912 9.55979,-13.2246 3.45878,-3.5102 5.97564,-6.5657 5.59302,-6.7901 -0.38262,-0.2243 -2.27067,-0.7377 -4.19567,-1.1409 -1.925,-0.4032 -3.96894,-1.1085 -4.54209,-1.5675 -0.6599,-0.5284 -2.64897,2.0812 -5.42348,7.1155 -2.40976,4.3725 -4.97832,7.9499 -5.70791,7.9499 -0.72959,0 -1.32536,-0.7875 -1.32395,-1.75 10e-4,-0.9625 1.57642,-4.36 3.5,-7.5501 1.92359,-3.19 3.49743,-6.709 3.49743,-7.8198 0,-1.1109 1.43428,-4.1258 3.18729,-6.6999 1.75301,-2.5741 6.04443,-7.4069 9.53649,-10.7395 3.49207,-3.3326 9.38992,-7.7016 13.10633,-9.7089 3.71642,-2.0074 9.419538,-4.3432 12.673608,-5.1907 3.25406,-0.8476 8.27478,-1.5411 11.157163,-1.5411 2.88237,0 7.62533,0.4849 10.5399,1.0774 2.91457,0.5926 7.28132,1.6652 9.69469,2.5513 13.35389,7.6033 5.44268,4.5951 13.23207,7.8325 2.42453,2.2214 6.03542,6.0638 8.0242,8.5388 1.98878,2.475 4.77733,6.75 6.19678,9.5 1.41945,2.75 3.09478,7.4127 3.72295,10.3616 0.64415,3.0239 0.95285,10.0002 0.70802,16 -0.30692,7.5213 -1.08802,12.5118 -2.66581,17.032 -1.22743,3.5165 -4.14613,9.3665 -6.486,13 -2.33987,3.6335 -5.48229,8.7439 -6.98315,11.3564 -1.50086,2.6125 -3.13331,4.75 -3.62767,4.75 -0.49435,0 -1.15118,-0.4083 -1.4596,-0.9074 -0.30843,-0.499 1.24001,-4.0852 3.44098,-7.9693 2.20097,-3.8841 4.00176,-7.4321 4.00176,-7.8844 -1.61782,-2.2265 -8.96052,-11.1187 -9,-7.3734 0,1.255 -1.08476,5.5112 -2.41059,9.4582 -1.32582,3.947 -5.16853,12.1263 -8.53936,18.1763 -3.37083,6.05 -6.76953,11.6424 -7.55267,12.4275 -1.23338,1.2366 -1.50939,1.2048 -2.06289,-0.2376 -0.37264,-0.9711 0.44572,-3.5162 1.96326,-6.1056 1.43124,-2.4423 2.60225,-5.0694 2.60225,-5.8381 0,-0.7686 -1.11326,-2.4434 -2.4739,-3.7217 -2.35555,-2.2129 -2.5046,-2.2332 -3.11556,-0.4243 -0.35291,1.0449 -1.91048,4.7005 -3.46126,8.1235 -1.55078,3.4231 -3.99019,7.4731 -5.42091,9 -1.43072,1.527 -4.623603,6.4707 -7.095303,10.9861 -2.4717,4.5154 -4.9695,8.5037 -5.55066,8.8629 -0.58117,0.3592 -1.51318,0.1965 -2.071128,-0.3614 -0.68594,-0.686 0.31378,-3.2887 3.087128,-8.0374 2.25588,-3.8626 4.10159,-7.2273 4.10159,-7.4772 0,-0.2499 -1.387757,-3.7147 -3.258547,-6.8214 -3.401448,-5.6487 -3.332683,-6.21107 -5.400743,-2.86487 -1.13743,1.8404 -4.973218,7.19607 -8.265278,10.33617 -3.72761,3.5556 -8.7767,7.0348 -13.38453,9.2231 -7.37475,3.5022 -7.41334,3.5413 -11.79493,11.9601 -2.41778,4.6456 -4.92097,8.4518 -5.56264,8.4584 -0.64166,0.01 -1.34933,-0.5362 -1.57259,-1.206 z M 118.92832,151.736 c -0.25721,-0.2573 -5.89092,3.15879 -8.14276,4.94229 -0.56632,0.44854 -0.32602,6.74993 -1.22638,8.15466 -5.02422,7.83871 -13.683355,21.20829 -12.286617,22.07879 0.995312,0.62032 1.629636,0.57324 2.723344,1.18766 1.375843,0.77292 6.707583,-14.87526 11.495453,-22.11134 1.60552,-2.42647 6.50834,0.72244 6.68554,-0.44223 0.42007,-2.761 1.00864,-13.55263 0.75142,-13.80983 z"
       id="path11865"
       sodipodi:nodetypes="sssccssssssssssssssssssscssssssssccssssssssssccsssssssssssssssssssscsssssssssss" /><path
       d="m 457.5882,425.01947 c -2.9757,-2.9757 -5.07562,-6.57982 -6.27462,-9.05662 -1.199,-2.4769 -3.43795,-7.01628 -4.02315,-10.33888 -0.7343,-4.1686 -1.16783,-8.0615 -0.46723,-12.5595 0.5581,-3.5851 2.51056,-8.30384 3.66756,-10.67864 1.157,-2.3749 3.01783,-6.77641 4.65783,-9.96841 1.6399,-3.1921 3.29261,-5.84735 3.82121,-5.52065 0.5604,0.3464 -1.24805,4.37399 -2.70105,7.65859 -2.4911,5.6327 -1.32005,4.20071 1.38855,7.02781 1.4897,1.5549 3.0132,2.8271 3.3855,2.8271 0.3723,0 0.9638,-2.0922 1.3143,-4.6494 0.3505,-2.5572 2.7741,-9.3029 5.3859,-14.9904 2.6117,-5.6875 5.3593,-10.3452 6.1056,-10.3506 0.9048,-0.01 1.1137,0.5736 0.627,1.7404 -0.4015,0.9625 -1.1977,2.9196 -1.7693,4.3492 -0.817,2.0431 -0.6784,3.1129 0.6475,5 1.6868,2.4008 1.89039,3.02668 2.51399,0.65588 0.343,-1.3037 1.67751,-5.30458 3.21451,-8.12588 1.5369,-2.8213 4.2827,-8.1648 6.1018,-11.8744 1.8192,-3.7096 3.87,-6.7471 4.5575,-6.75 0.6875,0 1.25,0.1751 1.25,0.3955 0,0.2203 -2.43406,4.12876 -3.76686,7.00546 -2.4233,5.2304 -1.07964,3.85594 1.09366,7.21254 1.1953,1.8461 2.6334,3.3621 3.1958,3.3689 0.5624,0.01 1.8745,-1.5695 2.9158,-3.503 1.0412,-1.9334 3.7768,-5.0589 6.0791,-6.9455 2.3024,-1.8866 5.7722,-4.1865 7.7108,-5.111 2.6582,-1.2676 4.2149,-3.1248 6.3321,-7.5545 1.5441,-3.2305 3.4072,-5.8736 4.1403,-5.8736 0.9643,0 0.6759,1.3138 -1.0427,4.75 -2.1102,4.2192 -2.3217,5.7246 -1.8928,13.4728 0.3555,6.4241 0.055,10.0314 -1.1412,13.6879 -0.8932,2.7308 -1.624,5.218 -1.624,5.5272 0,0.3091 1.2817,0.5621 2.8482,0.5621 2.3951,0 3.141,-0.6759 4.6898,-4.25 1.013,-2.3375 2.2573,-4.8076 2.7652,-5.489 0.5079,-0.6815 1.3087,-1.0009 1.7796,-0.7099 0.4709,0.291 -0.2173,2.8736 -1.5293,5.739 -1.3119,2.8654 -2.8813,7.0892 -3.4875,9.3863 -0.6062,2.297 -2.669,6.5047 -4.5841,9.3504 -1.915,2.8458 -3.4819,5.3539 -3.4819,5.5736 0,0.2198 1.3477,0.3996 2.9949,0.3996 2.5694,0 3.2954,-0.6393 5.1101,-4.5 1.1634,-2.475 2.5157,-4.5 3.0052,-4.5 0.4894,0 0.8898,0.4679 0.8898,1.0398 0,0.5719 -0.8361,2.7094 -1.8581,4.75 -1.0219,2.0406 -2.182,5.0602 -2.5779,6.7102 -0.3959,1.65 -1.6896,4.575 -2.8747,6.5 -1.1852,1.925 -3.6882,5.1994 -5.5623,7.2764 -1.8741,2.077 -3.2318,3.9258 -3.0172,4.1084 0.2146,0.1827 2.0591,0.5895 4.0988,0.904 3.6773,0.5672 3.7295,0.5262 6.1947,-4.8584 1.3673,-2.9868 2.9913,-5.4304 3.6088,-5.4304 0.6997,0 0.8657,0.8476 0.4406,2.25 -0.3752,1.2375 -1.4967,3.825 -2.4923,5.75 -0.9955,1.925 -2.0666,4.6941 -2.3801,6.1537 -0.3135,1.4596 -2.2943,4.8346 -4.4016,7.5 -2.1074,2.6654 -5.54552,5.75289 -7.42842,7.18839 -1.883,1.4354 -5.68277,3.83455 -8.58317,5.35095 -3.5025,1.8313 -7.26944,2.77259 -11.40524,3.08649 -3.4246,0.2599 -8.11991,-0.2781 -10.31991,-0.8402 -2.2,-0.5619 -4.91302,-1.61273 -6.10052,-1.97623 -9.0983,-3.2367 -4.5669,-1.34939 -10.74239,-7.07179 z m 18.9849,-8.6995 c 1.8563,-2.0512 3.11559,-2.40581 1.22386,-3.78893 -0.0789,-0.0577 9.77326,-16.65923 10.16468,-17.66831 0.97543,-2.51464 -2.86244,-3.00078 -3.88888,-1.45002 -0.81239,1.22736 -10.1471,17.45552 -10.19753,17.45552 -0.4449,0 -0.88383,2.11704 -0.88383,4.04204 0,1.925 0.3803,3.5 0.845,3.5 0.4648,0 1.6963,-0.9406 2.7368,-2.0903 z"
       style="fill:#edb637;fill-opacity:1"
       id="path12091"
       sodipodi:nodetypes="csscscscsssscsssssscssscssssssscssssssscsssssssssscsssssscsscccccsssssscc" /></g><g
     inkscape:groupmode="layer"
     inkscape:label="trigo"
     id="g8"
     style="display:inline"><path
       style="fill:#8f6437;fill-opacity:1"
       d="m 262.83543,530.98952 c -28.8789,-2.17999 -67.3048,-13.36747 -71.2273,-20.7374 -4.5279,-8.50754 -31.8854,-35.77835 -47.7247,-47.57349 -1.8464,-1.375 -4.839,-3.625 -6.6502,-5 -1.8112,-1.375 -5.5981,-4.075 -8.4154,-6 -2.8172,-1.925 -5.7497,-4.07857 -6.5166,-4.78571 -0.7669,-0.70715 -1.6354,-1.26975 -1.93,-1.25023 -0.5939,0.0394 -5.7441,-2.74236 -20.2991,-10.96406 -8.1631,-4.61113 -9.7871,-5.93644 -10.0483,-8.20055 -0.4157,-3.60133 1.2581,-6.49118 5.1254,-8.84922 4.4925,-2.73924 10.1772,-2.44169 20.804,1.08889 5.0311,1.67152 9.543,2.90728 10.0264,2.74613 0.4835,-0.16115 -5.6273,-6.72402 -13.5795,-14.58416 -7.9522,-7.86014 -14.7547,-15.22452 -15.1168,-16.36528 -0.9693,-3.05403 1.394,-6.62853 5.2167,-7.89013 3.1967,-1.055 6.9457,-0.64262 15.1305,1.66428 l 2.295,0.64687 -1.7176,-3.60193 c -2.0632,-4.32657 -0.8555,-8.14057 3.0477,-9.62455 4.0903,-1.55513 8.6475,0.33963 18.4615,7.67577 3.6631,2.73826 4.9751,3.18187 8,2.70509 4.3446,-0.68478 7.8063,0.53794 15.1183,5.34004 17.3644,11.40388 32.1011,27.36974 51.4566,55.74875 5.7335,8.40648 5.4797,8.33078 25.7374,7.67577 32.7795,-1.05988 51.5865,4.72096 67.4567,20.73464 l 8.3351,8.41042 4.2571,-1.25645 c 13.57364,-4.00614 30.36925,-14.94768 43.73207,-28.48936 4.11124,-4.16626 8.04874,-7.57502 8.75,-7.57502 3.07448,0 0.76255,4.53348 -5.87583,11.52196 -12.03459,12.6693 -28.49748,23.72989 -41.59914,27.94837 -2.8875,0.92972 -5.25,1.90926 -5.25,2.17676 0,0.26749 1.1749,2.02674 2.6109,3.90943 2.57883,3.38101 2.66,6.447 0.17048,6.43975 -0.70478,-0.002 -3.41538,-2.64426 -6.02358,-5.87157 -2.6082,-3.22731 -8.4755,-9.66901 -13.0385,-14.31489 -7.1234,-7.25293 -9.4027,-8.90769 -16.1233,-11.70545 -13.2433,-5.51322 -24.911,-7.20595 -48.0625,-6.9728 l -20.0335,0.20175 -12.3822,-3.71888 c -13.8082,-4.14715 -16.4547,-4.26684 -16.9502,-0.76657 -0.8394,5.92992 10.9676,12.23043 40.8324,21.78905 11.275,3.60872 21.625,6.88945 23,7.29053 3.0073,0.87719 4.1505,5.07256 1.3823,5.07256 -2.1491,0 -25.2865,-6.92147 -38.7551,-11.59345 -8.7371,-3.03072 -12.2275,-4.57384 -22.7264,-10.04749 -1.4296,-0.74532 -4.6399,-3.5704 -7.134,-6.27797 -3.629,-3.93957 -7.2044,-6.20908 -17.9008,-11.36249 -31.3442,-15.10134 -58.6504,-25.7186 -66.1449,-25.7186 -3.6113,0 -7.7211,2.36612 -7.7211,4.44527 0,0.73252 3.4875,3.19107 7.75,5.46343 18.7133,9.97616 24.5567,13.60871 38.7312,24.07744 19.869,14.67436 43.4293,37.16472 52.3921,50.0127 2.7766,3.98017 4.7386,5.45964 11.0912,8.3635 8.158,3.72912 24.9123,8.27853 41.5355,11.2784 7.9903,1.44196 15.4262,1.81012 37,1.83195 28.7655,0.0291 35.7134,-0.6893 58.34209,-6.03235 54.20817,-12.79956 99.25048,-46.95225 126.8063,-96.14908 l 3.4776,-6.20875 -5.41048,-5.41048 c -9.19999,-9.19999 -12.86237,-20.31025 -10.88398,-33.01784 0.98536,-6.32911 1.93579,-8.75712 8.2039,-20.95793 3.80538,-7.40716 5.77173,-6.57842 2.41273,1.01687 l -2.49104,5.63268 2.70853,2.82709 c 1.48969,1.55491 3.01318,2.8271 3.38552,2.8271 0.37234,0 0.96376,-2.09224 1.31426,-4.64943 0.79418,-5.79422 9.65226,-25.32784 11.49156,-25.34092 0.90479,-0.006 1.11373,0.57351 0.62699,1.74035 -2.80281,6.71907 -2.82716,6.92203 -1.12181,9.34921 l 1.68681,2.40079 0.62361,-2.37035 c 0.34299,-1.30369 1.8811,-4.67869 3.41804,-7.5 1.53693,-2.82131 4.28278,-8.16479 6.10189,-11.87441 1.81912,-3.70962 3.86998,-6.74712 4.55748,-6.75 1.6344,-0.007 1.64336,-0.0529 -1.17327,6.02654 l -2.42327,5.23038 2.17327,3.35654 c 1.1953,1.8461 2.63344,3.36211 3.19587,3.36892 0.56242,0.007 1.8745,-1.56953 2.91573,-3.50296 2.13439,-3.96332 8.51293,-9.54004 13.78997,-12.05648 2.6582,-1.26761 4.21488,-3.12481 6.33208,-7.5545 1.54405,-3.23053 3.4072,-5.87368 4.14033,-5.87368 0.9643,0 0.67589,1.3138 -1.04271,4.75 -2.11024,4.21925 -2.32174,5.72466 -1.89287,13.47287 0.35558,6.42403 0.0548,10.03137 -1.14115,13.6879 -2.07161,6.33358 -2.12073,6.08923 1.22415,6.08923 2.39516,0 3.14103,-0.67591 4.68989,-4.25 2.2989,-5.30486 3.45026,-6.87528 4.54474,-6.19885 0.47088,0.29102 -0.21729,2.87356 -1.52925,5.73899 -1.31197,2.86542 -2.88136,7.08923 -3.48754,9.38625 -0.60618,2.29701 -2.669,6.50473 -4.58406,9.35049 -1.91505,2.84575 -3.48191,5.35388 -3.48191,5.57361 0,0.21973 1.34769,0.39951 2.99488,0.39951 2.56944,0 3.29535,-0.63924 5.11012,-4.5 1.16339,-2.475 2.5157,-4.5 3.00513,-4.5 1.35999,0 1.07354,1.71292 -0.96823,5.78984 -1.02196,2.04059 -2.18203,5.06016 -2.57795,6.71016 -0.90771,3.7829 -4.05111,8.91565 -8.43697,13.77643 -1.8741,2.07703 -3.23185,3.92584 -3.01722,4.10846 0.21463,0.18261 2.05909,0.5894 4.0988,0.90397 3.67728,0.56713 3.72951,0.52616 6.19467,-4.85846 1.36737,-2.98672 2.99134,-5.4304 3.60883,-5.4304 1.32427,0 0.57529,2.9205 -2.05164,8 -0.99554,1.925 -2.0666,4.69418 -2.38014,6.15374 -0.70682,3.29033 -7.07941,11.46668 -11.65674,14.95616 -11.82913,9.01782 -22.08457,10.80222 -36.58257,6.36518 -1.79439,-0.54917 -2.46475,-0.0118 -3.96924,3.18208 -4.85918,10.31536 -16.02177,26.62747 -26.23852,38.34284 -34.67155,39.75729 -81.33538,63.05848 -138.13321,68.97564 -8.817,0.91854 -36.6436,1.11703 -47,0.33525 z m -78,-82.65751 c 0,-0.19065 -4.8375,-5.07565 -10.75,-10.85556 -36.0612,-35.25247 -50.9686,-46.93345 -63.4739,-49.73594 -4.5022,-1.00896 -8.7761,-0.49855 -8.7761,1.04807 0,0.48218 6.6625,7.5172 14.8056,15.63337 8.1431,8.11617 16.3794,16.57234 18.303,18.79147 1.9846,2.28959 5.6371,4.93571 8.4444,6.11764 11.9492,5.03099 16.6852,7.19916 28.447,13.02317 13.7468,6.80696 13,6.46354 13,5.97778 z m 24.9076,-2.90338 c -0.9774,-1.89139 -11.7218,-16.62248 -16.8946,-23.16321 -3.9396,-4.98152 -17.2147,-19.59001 -17.8248,-19.61517 -0.3785,-0.0156 -2.7132,-1.83108 -5.1882,-4.03437 -5.2985,-4.71684 -17.7963,-12.47426 -18.6774,-11.59314 -0.337,0.33698 2.6604,3.64309 6.6609,7.34692 8.8241,8.16979 23.5889,24.86551 35.4192,40.05122 6.5813,8.44793 9.546,11.47031 11.9277,12.15981 5.3273,1.54219 5.8956,1.39914 4.5772,-1.15206 z m -16.0963,-2.28534 c 0.8395,-0.68482 -20.7799,-26.26643 -32.8113,-38.82476 -20.9886,-21.90784 -44.8195,-36.29009 -37.2885,-22.50412 3.513,6.43091 5.4617,8.75476 10.6103,12.65316 8.6211,6.52763 35.0319,30.72648 48.1185,44.08838 5.0364,5.14242 6.3297,5.97215 8.5,5.4533 1.4078,-0.33659 2.6998,-0.72627 2.871,-0.86596 z m 311.84738,-27.56677 c 4.11969,-1.96216 8.00982,-4.93276 11.75,-8.97259 3.07522,-3.32162 5.59132,-6.44326 5.59132,-6.93699 0,-0.85722 -2.25865,-1.38315 -10,-2.32849 -5.59334,-0.68303 -15.12354,1.23942 -20,4.03444 -4.91091,2.81477 -14,11.77277 -14,13.79808 0,1.54606 4.27982,3.32757 9,3.74632 6.41959,0.56952 11.44481,-0.38118 17.65868,-3.34077 z m -28.53864,-5.64789 c 0.75898,-2.6125 1.36863,-8.13865 1.35478,-12.28033 -0.0209,-6.25984 -0.5178,-8.53751 -2.94503,-13.5 -2.67664,-5.47242 -10.78403,-15.46967 -12.54531,-15.46967 -2.0162,0 -3.48448,7.16342 -3.48448,17 0,9.16195 0.30549,11.07345 2.39729,15 2.57266,4.8292 10.87868,13.95894 12.72275,13.98449 0.61602,0.009 1.74102,-2.12199 2.5,-4.73449 z m 8.4617,-7.34032 c 1.85633,-2.05122 1.85565,-2.11668 -0.0361,-3.5 -2.90462,-2.12388 -3.54564,-1.74596 -3.54564,2.09032 0,4.01659 0.90144,4.37138 3.58174,1.40968 z m 11.41826,-6.90968 c 3.025,-1.06409 7.46024,-1.9494 9.8561,-1.96735 3.33985,-0.025 5.27633,-0.76149 8.30069,-3.15683 4.27867,-3.38877 10.34643,-12.94678 8.81853,-13.89107 -1.7057,-1.05418 -15.64274,0.79287 -19.09425,2.53053 -8.21837,4.13754 -19.2765,18.74936 -13.9644,18.45207 0.32083,-0.0179 3.05833,-0.90326 6.08333,-1.96735 z m -9.77463,-6.75 c 1.52575,-3.43001 2.12153,-6.83419 2.14392,-12.25 0.0328,-7.92873 -1.60618,-12.5114 -7.08912,-19.82173 -2.40877,-3.21159 -2.53718,-3.25636 -3.87244,-1.35 -1.68285,2.40261 -4.40773,12.54318 -4.40773,16.40327 0,1.54624 1.1075,4.48919 2.46111,6.5399 1.35361,2.05071 3.16111,5.75356 4.01667,8.22856 0.85556,2.475 1.75894,5.0625 2.00751,5.75 0.89394,2.4725 2.66512,1.1647 4.74008,-3.5 z m 7.54546,-7.0625 c 0.59996,-1.79986 -1.467,-1.42165 -2.16452,0.39606 -0.37373,0.97391 -0.15024,1.43108 0.58051,1.1875 0.6535,-0.21783 1.36631,-0.93044 1.58401,-1.58356 z m 3.38996,-9.9375 c 1.83226,-3.72059 2.33419,-6.37539 2.31603,-12.25 -0.023,-7.44211 -1.40195,-11.60542 -5.77831,-17.44582 -1.39221,-1.85795 -1.55269,-1.76034 -3.55329,2.16116 -1.15237,2.25884 -2.52566,6.02272 -3.05175,8.36418 -0.82103,3.65412 -0.62367,4.91407 1.39315,8.89407 1.29232,2.55028 2.64657,6.41201 3.00944,8.58164 1.36138,8.13972 2.34579,8.43424 5.66473,1.69477 z m 9.56821,2.59145 c 8.92465,-2.84513 15.40485,-8.94799 17.77002,-16.73528 0.72054,-2.37239 0.67903,-2.38756 -4.63598,-1.69448 -2.94967,0.38464 -7.63317,1.73218 -10.40777,2.99453 -4.93273,2.24423 -5.10053,2.465 -7.55825,9.94448 -1.38243,4.20711 -2.38425,7.6493 -2.22627,7.6493 0.15799,0 3.3342,-0.97135 7.05825,-2.15855 z m 11.96075,-25.64393 c 1.64495,-3.93384 3.00374,-19.19917 1.70847,-19.19378 -3.27528,0.0136 -12.41465,7.60373 -16.10573,13.37554 -2.10475,3.29124 -2.37598,4.57971 -1.78928,8.5 0.38035,2.5414 0.86323,4.8999 1.07308,5.24112 0.20986,0.34122 3.38552,-0.55878 7.05704,-2 5.52449,-2.16859 6.91358,-3.18982 8.05642,-5.92288 z M 53.59613,264.46084 c -0.2232,-0.66979 1.1269,-3.92958 3.0003,-7.24399 3.3341,-5.89859 3.4119,-6.3016 3.6724,-19.03221 0.2595,-12.67789 0.724,-15.03699 5.0709,-25.75601 0.6115,-1.508 0.1072,-1.74907 -3.6473,-1.74331 l -4.357,0.007 -3.8086,6.99331 c -2.0947,3.84601 -4.2057,6.993 -4.691,6.993 -2.285,0 -1.789,-2.58869 1.8655,-9.7374 2.1826,-4.26943 4.5194,-9.5626 5.1929,-11.7626 1.5009,-4.90314 5.8831,-11.59815 11.291,-17.25 3.5134,-3.67187 3.7832,-4.25 1.9834,-4.25 -1.1458,0 -3.4578,-0.27492 -5.1378,-0.61092 -2.9166,-0.58331 -3.1924,-0.33801 -6.1026,5.42715 -3.2656,6.46906 -4.7086,7.96793 -6.218,6.45858 -0.6012,-0.60124 0.3082,-3.4927 2.473,-7.86287 1.8832,-3.80157 4.896,-9.99098 6.6951,-13.75425 2.1185,-4.43135 5.4869,-9.09115 9.5598,-13.22456 3.4587,-3.51024 5.9756,-6.56578 5.593,-6.79009 -0.3826,-0.22432 -2.2707,-0.73773 -4.1957,-1.14092 -1.925,-0.40318 -3.9689,-1.10856 -4.5421,-1.56749 -0.6599,-0.52839 -2.649,2.08121 -5.4235,7.11548 -4.1476,7.52571 -7.0375,10.07373 -7.0318,6.19989 10e-4,-0.9625 1.5764,-4.36004 3.5,-7.55008 1.9236,-3.19004 3.4974,-6.70897 3.4974,-7.81982 0,-5.56865 14.9307,-21.26129 25.8301,-27.14833 14.4,-7.77776 28.3876,-8.71935 44.0578,-2.96579 l 4.388,1.6111 3.0246,-3.93854 c 4.8623,-6.33142 21.7018,-22.552213 28.4851,-27.438543 25.4808,-18.35492 63.001,-33.09385 98.5917,-38.72952 15.9005,-2.51778 57.46185,-2.49291 73.6227,0.0441 22.78302,3.57654 49.47416,11.44941 60.54272,17.85779 6.38901,3.69906 7.69219,4.94511 12.37377,11.83136 7.96415,11.71465 16.28924,21.24356 31.08351,35.578213 16.82254,16.29992 29.74026,26.20851 55.75,42.76326 3.9875,2.53797 7.25,5.2774 7.25,6.08762 0,2.85516 -2.14753,6.12964 -5.54835,8.45992 -4.67173,3.20111 -11.22798,2.56913 -22.88233,-2.20572 -4.91188,-2.01242 -9.09353,-3.49611 -9.29256,-3.29707 -0.36618,0.36618 3.20751,4.46704 16.61304,19.06368 11.69879,12.73826 12.92292,15.49482 8.65958,19.50002 -2.08718,1.9608 -3.23994,2.23678 -7.77284,1.86088 -2.92722,-0.24275 -6.77043,-1.16382 -8.54047,-2.04684 -3.38972,-1.69101 -4.72539,-1.15426 -3.1854,1.2801 1.54659,2.44479 1.06486,7.53772 -0.87941,9.29726 -3.87697,3.50861 -9.24911,1.78624 -18.86975,-6.04989 -4.60477,-3.75063 -6.40323,-4.6297 -9.10017,-4.44807 -7.94261,0.53491 -24.62677,-11.86404 -37.51532,-27.87978 -6.7986,-8.44817 -20.4372,-28.41623 -26.7159,-39.11435 -3.88336,-6.61674 -4.52639,-6.82478 -21.14776,-6.84191 -21.95022,-0.0226 -43.43806,-5.05896 -56.33786,-13.2045 -4.44,-2.80362 -13.2659,-11.61755 -17.2737,-17.250323 -2.2887,-3.21677 -2.9337,-3.55633 -5.6301,-2.96409 -16.0513,3.52545 -33.4506,13.476593 -49.5644,28.347283 -5.7015,5.2617 -7.4331,6.02282 -8.3379,3.66497 -1.1495,-2.99558 16.7728,-18.63677 29.9767,-26.16136 7.3587,-4.193503 16.8206,-8.147723 24.1148,-10.077783 l 3.2698,-0.86521 -2.6453,-3.70186 c -2.4445,-3.42083 -2.7246,-6.79814 -0.5639,-6.79814 0.4913,0 5.6643,5.98714 11.4956,13.30475 5.8312,7.317623 12.6316,14.762123 15.1119,16.543353 12.6605,9.09209 32.86395,14.09221 57.1019,14.13209 12.98799,0.0214 19.05484,1.17027 31.4601,5.95771 10.22417,3.94572 12.55419,4.36506 14.33865,2.58059 5.19841,-5.1984 -7.93647,-14.19518 -36.83865,-25.23276 -4.4,-1.68033 -12.3875,-4.73458 -17.75,-6.78722 -9.38141,-3.590993 -11.86714,-5.748863 -8.23005,-7.144543 1.64343,-0.63064 25.62939,8.101293 42.25849,15.383933 13.45716,5.89351 21.29142,11.04983 25.01803,16.46628 2.57792,3.74688 5.73921,5.90278 21.4499,14.62814 19.04268,10.57588 47.24181,24.11702 54.25363,26.05244 2.2,0.60725 5.36237,1.1066 7.02749,1.10966 2.97078,0.005 7.47251,-2.34208 7.47251,-3.89675 0,-0.43391 -4.6125,-3.6587 -10.25,-7.16621 -20.38556,-12.68336 -32.95735,-22.4159 -49.643,-38.43146 -13.77542,-13.22221 -25.45613,-26.399433 -32.40582,-36.557603 -6.72369,-9.82784 -11.40765,-12.88884 -28.93342,-18.9082 -24.22251,-8.3194 -48.08192,-12.0342 -77.29336,-12.0342 -27.9342,0 -48.0615,3.0699 -73.4744,11.20659 -37.9004,12.13494 -66.1967,29.64055 -84.465,52.254643 l -4.8157,5.96122 4.4082,4.03878 c 9.5372,8.73782 15.901,18.81006 17.944,28.40039 0.6441,3.02386 0.9528,10.00016 0.708,16 -0.5145,12.60893 -2.8345,20.22205 -9.1518,30.03199 -2.3399,3.63351 -5.4823,8.74389 -6.9832,11.35639 -1.5008,2.6125 -3.1333,4.75 -3.6276,4.75 -2.2493,0 -1.7297,-2.32781 1.9813,-8.87669 2.201,-3.88408 4.0018,-7.43207 4.0018,-7.88443 0,-0.45236 -2.025,-2.80985 -4.5,-5.23888 -4.0617,-3.98625 -4.5,-4.19415 -4.5,-2.13452 0,4.41866 -4.8879,16.75422 -10.95,27.63452 -7.076,12.70021 -8.6527,14.69898 -9.6155,12.18988 -0.3727,-0.97108 0.4457,-3.51613 1.9632,-6.10561 3.2224,-5.49851 3.2377,-6.63872 0.1284,-9.55975 -2.3556,-2.21293 -2.5046,-2.23323 -3.1156,-0.42432 -1.8958,5.61309 -6.6067,14.69502 -8.8821,17.12352 -1.4307,1.52695 -4.6236,6.47069 -7.0953,10.98609 -4.7883,8.74732 -6.0115,10.11177 -7.6218,8.50147 -0.686,-0.68594 0.3138,-3.28871 3.0871,-8.03734 2.2559,-3.86259 4.1016,-7.22735 4.1016,-7.47726 0,-0.2499 -1.5306,-2.99627 -3.4014,-6.10303 l -3.4015,-5.64865 -2.068,3.34619 c -3.8137,6.17067 -13.71,14.60835 -21.4382,18.27847 -7.3748,3.50225 -7.4133,3.54137 -11.7949,11.96019 -4.1446,7.96344 -6.2014,10.05398 -7.1353,7.25236 z m 20.4407,-25.35266 c 5.7404,-3.54805 13.4008,-10.93744 16.8343,-16.23857 2.3614,-3.64593 2.6503,-4.79904 1.8776,-7.4934 -0.5023,-1.75141 -0.9133,-4.87485 -0.9133,-6.94098 0,-4.34452 -0.2472,-4.42194 -5.7034,-1.78581 -2.2435,1.08394 -5.9965,2.2774 -8.34,2.65214 -2.3435,0.37474 -5.0407,1.46122 -5.9939,2.4144 -3.3013,3.30123 -6.1749,13.0276 -6.7187,22.74027 l -0.5194,9.27761 2.5891,-0.98437 c 1.424,-0.5414 4.5234,-2.17998 6.8877,-3.64129 z m 35.1943,-14.26427 c 3.0582,-4.84452 6.9968,-16.63746 6.3071,-18.8847 -0.3006,-0.97932 -1.6827,-4.47843 -3.0713,-7.7758 -1.3887,-3.29738 -2.8249,-8.79715 -3.1916,-12.22173 -0.9564,-8.93046 -2.5726,-9.71529 -6.3935,-3.10473 -7.4658,12.91641 -8.0433,25.9787 -1.7358,39.26053 2.1522,4.53171 4.0914,7.43074 4.7135,7.04627 0.5813,-0.35928 2.0985,-2.30321 3.3716,-4.31984 z m 23.8345,-24.16528 c 0.915,-2.475 2.1477,-7.25917 2.7393,-10.63148 1.0686,-6.09197 1.0501,-6.17896 -2.8705,-13.5 -2.1702,-4.05269 -4.4849,-10.16063 -5.1437,-13.57321 -0.6587,-3.41258 -1.9873,-6.91932 -2.9525,-7.79276 -1.6295,-1.47472 -1.9155,-1.31734 -4.0068,2.20469 -9.888,16.65266 -8.8116,34.94689 3.0106,51.16943 l 3.1895,4.37667 2.1852,-3.87667 c 1.2018,-2.13217 2.9338,-5.90167 3.8489,-8.37667 z m 337.7698,7.96016 c 0,-4.58205 -4.81991,-10.54139 -25.16142,-31.10963 -11.73622,-11.86704 -24.71358,-25.41629 -28.83858,-30.10944 -6.45145,-7.34004 -7.84952,-8.45799 -10,-7.99638 -1.375,0.29516 -2.64995,0.66078 -2.83321,0.81251 -0.62638,0.51859 18.10867,25.92494 27.02021,36.64174 14.0325,16.87515 33.08588,33.80104 38.04965,33.80104 1.10816,0 1.76335,-0.75792 1.76335,-2.03984 z M 80.72573,203.2209 c 8.4904,-3.00248 10.846,-5.11685 12.6317,-11.33823 0.9005,-3.13722 2.6947,-7.61654 3.9872,-9.95404 2.7951,-5.05496 2.1241,-5.2869 -6.5092,-2.25 -3.025,1.06409 -6.85,1.95418 -8.5,1.97798 -1.9261,0.0278 -4.7353,1.41837 -7.8479,3.88476 -5.4147,4.29065 -13.6521,15.431 -13.6521,18.46321 0,1.84283 0.5021,1.93156 7.75,1.36967 4.2625,-0.33045 9.7256,-1.29946 12.1403,-2.15335 z m 411.1097,-3.81132 c 0,-0.69797 -4.11067,-5.76047 -9.13482,-11.25 -5.02415,-5.48952 -12.69633,-14.24754 -17.04929,-19.46225 -7.85149,-9.40587 -8.02744,-9.5401 -22.11517,-16.87112 -7.8104,-4.06439 -17.45556,-9.36031 -21.4337,-11.76869 -3.97814,-2.40839 -7.73933,-4.37889 -8.35821,-4.37889 -2.67957,0 43.71048,48.24962 53.59119,55.73942 3.3,2.50147 8.25,5.58251 11,6.84675 5.53576,2.54492 13.5,3.22028 13.5,1.14478 z m -52.65494,-6.00192 c -6.76052,-7.09403 -8.32648,-8.89947 -15.81115,-18.22903 -7.59464,-9.46663 -21.63313,-28.6884 -25.37924,-34.74973 -1.21465,-1.96536 -3.43386,-4.01715 -4.93156,-4.55954 -1.49771,-0.54239 -3.51061,-1.30534 -4.47311,-1.69544 -2.7226,-1.10346 -2.13509,0.9846 2.19401,7.79768 16.55294,26.05082 28.05379,39.91547 41.55599,50.0971 10.44228,7.87422 13.67584,8.50674 6.84506,1.33896 z m -282.80556,-9.22903 c 2.786,-9.59724 3.527,-19.86314 2.0462,-28.3457 -0.7519,-4.30703 -2.1444,-9.36622 -3.0943,-11.24264 -2.6415,-5.21754 -9.2363,-13.47974 -13.1302,-16.44975 -3.3451,-2.55137 -3.55,-2.58598 -4.843,-0.81773 -5.3142,7.26759 -6.8684,31.13756 -2.6839,41.21965 2.7328,6.58429 7.1214,13.10635 13.084,19.44442 4.1966,4.46091 4.6189,4.67763 5.8466,3 0.7277,-0.99454 1.9763,-4.05825 2.7746,-6.80825 z m -67.9996,-9.0329 c 6.6001,-1.6975 14.3909,-6.56313 19.6111,-12.24782 3.7233,-4.05461 7.849,-10.3519 7.849,-11.98033 0,-2.10825 -3.4028,-2.1949 -9.7087,-0.24722 -4.0501,1.25096 -9.3168,2.00827 -13.9665,2.00827 -6.6132,0 -7.9412,0.33124 -11.6446,2.90453 -7.1616,4.9761 -15.6802,15.47627 -15.6802,19.3276 0,1.55641 1.0514,1.76787 8.7899,1.76787 4.8345,0 11.472,-0.6898 14.75,-1.5329 z m 21.8531,-4.04889 c 1.1411,-2.97375 0.6079,-3.729 -1.3694,-1.93955 -1.087,0.98375 -1.7355,2.17849 -1.441,2.65499 0.8365,1.35354 2.1442,1.02066 2.8104,-0.71544 z m 17.1669,-32.19165 c -0.2572,-0.25722 -2.3101,0.99155 -4.5619,2.77503 -4.4221,3.50233 -4.4801,3.24851 1.5134,6.61554 1.8372,1.03209 2.0467,0.735 2.7524,-3.90289 0.4201,-2.76101 0.5533,-5.23047 0.2961,-5.48768 z m -18.1873,4.9971 c 9.019,-4.24314 15.9332,-9.40421 20.7324,-15.47569 2.1422,-2.71016 3.895,-5.25498 3.895,-5.65515 0,-1.44753 -11.6734,-4.41543 -19.164,-4.87234 -14.1441,-0.86277 -28.317,5.39681 -39.586,17.48343 -3.4375,3.6869 -6.25,7.21689 -6.25,7.84441 0,2.23517 12.0037,4.40047 23,4.1489 9.4821,-0.21693 11.1662,-0.55365 17.3726,-3.47356 z"
       id="path364-9"
       sodipodi:nodetypes="sssssssscssssssscsssssssscsssssssssssscssssssssssssssssssscsssscssscsscssscscscssssssssssssssssssssssssssssssssssssssssssssssssssssssssssssssssssssssscssssssssssssssssssssssssssssssssssssssssssssssssssscccssssssssssssssscsssscsssssssssssssssssssssssssssssscsssssssssssssscsssssssscssssssssssssssssssssscssssssssssssscssssssssssssssssscsssssssssssssssssssssssssssssssssssssscssssssssssssssssssssssssssssssss" /></g><g
     inkscape:groupmode="layer"
     id="layer2"
     inkscape:label="manos"
     style="display:inline"><path
       style="fill:#7e4f25;fill-opacity:1"
       d="m 377.01487,423.39708 c -3.8218,-1.54608 -7.4184,-6.87051 -7.4184,-10.98215 0,-9.08317 5.6702,-17.85831 16.5615,-25.63015 6.3218,-4.51113 6.4385,-4.67793 6.4385,-9.20241 v -4.608 l -2.8957,4.566 c -1.5926,2.5113 -3.9428,5.29941 -5.2225,6.19578 -3.9506,2.76713 -11.0205,1.64907 -13.2235,-2.09121 -0.6686,-1.13517 -1.5768,-0.69391 -4.4167,2.14599 -6.1607,6.16078 -13.99272,3.92684 -16.30221,-4.64994 l -1.10878,-4.1177 -2.92394,5.42132 c -3.78827,7.02388 -8.05555,10.92132 -11.95767,10.92132 -8.03401,0 -11.5817,-7.19926 -10.57876,-21.46729 0.52879,-7.52257 0.38139,-9.57793 -0.73321,-10.22403 -2.06423,-1.19658 -5.62903,-7.489 -5.63333,-9.94367 -0.004,-2.21701 3.78726,-5.36501 6.46108,-5.36501 1.04464,0 1.53518,0.97445 1.53518,3.04966 0,3.56177 2.53538,8.95034 4.21123,8.95034 0.63793,0 2.14102,0.92174 3.3402,2.04831 2.05401,1.92965 2.15163,2.69845 1.6851,13.27021 -0.42482,9.62662 -0.25942,11.41759 1.16344,12.59846 2.6536,2.20229 5.89424,-1.76503 10.65239,-13.04107 3.81668,-9.0449 4.1392,-10.48001 3.78077,-16.82324 -0.3469,-6.13933 -0.17543,-6.9914 1.49483,-7.42818 2.66309,-0.69642 6.35441,0.91349 7.65148,3.33704 0.731,1.3659 0.8848,5.83482 0.4577,13.29787 -0.6631,11.58779 0.2243,16.7406 2.8831,16.7406 3.0404,0 5.7563,-5.36352 7.6746,-15.15619 1.3008,-6.6404 6.2166,-14.5935 9.8814,-15.98687 1.4193,-0.53962 4.2778,-1.04881 6.3522,-1.13153 2.2191,-0.0885 3.7716,-0.65261 3.7716,-1.37052 0,-3.75116 10.5896,-1.5469 12.7074,2.64511 0.7625,1.50922 1.2898,6.66129 1.3305,13 l 0.067,10.5 3.1973,-3.78118 c 1.7586,-2.07965 5.0049,-7.01681 7.2141,-10.97146 5.0406,-9.02288 8.7689,-11.79231 14.4716,-10.7495 2.238,0.40924 4.8871,1.48439 5.8869,2.38922 1.9167,1.7346 4.1248,7.87948 4.1248,11.47894 0,1.17369 0.3626,2.13398 0.8057,2.13398 1.243,0 6.8283,-4.33427 9.0955,-7.05836 l 2.0322,-2.44164 0.033,2.64641 c 0.036,2.83374 -4.4701,7.51117 -9.9802,10.36057 -1.9998,1.03416 -2.9865,2.30297 -2.9865,3.84056 0,3.61022 -3.066,11.92737 -5.3093,14.40246 -2.5963,2.86449 -7.7932,2.9678 -12.2027,0.24257 -3.3393,-2.06379 -7.488,-9.82671 -7.488,-14.01128 0,-2.80018 -0.7347,-2.40282 -5.7882,3.13054 -4.1936,4.59181 -4.212,4.64607 -4.2467,12.5 -0.061,13.791 -3.4827,27.74605 -8.2382,33.59886 -0.7644,0.94087 -2.62,2.17837 -4.1235,2.75 -3.2264,1.22665 -11.2287,1.2664 -14.185,0.0705 z m 12.5232,-3.92217 c 1.2572,-2.34902 3.0392,-17.4772 3.0502,-25.89416 0.01,-6.06506 -0.065,-6.24604 -2.0803,-5.16747 -4.1544,2.22335 -10.2632,8.5385 -12.0459,12.45265 -3.3313,7.3146 -1.8137,15.34109 3.515,18.59041 3.955,2.41169 6.2772,2.4174 7.561,0.0186 z m 45.0472,-42.00889 c 1.8127,-6.52565 1.3589,-8.49335 -2.2388,-9.70761 -1.7875,-0.60329 -3.9732,-1.41184 -4.857,-1.79678 -3.6771,-1.60155 -2.993,14.39557 0.7321,17.11949 2.3148,1.69259 4.9893,-0.66729 6.3637,-5.6151 z m -49.6921,-0.88796 c 3.0113,-3.14306 7.7033,-13.89064 7.7033,-17.64521 0,-6.81296 -4.8286,-9.81408 -8.8482,-5.4995 -4.0302,4.32589 -6.8308,21.85361 -3.9518,24.73258 1.6822,1.6822 2.0836,1.55713 5.0967,-1.58787 z m 49.4107,-16.39395 c -1.5852,-3.88487 -2.9356,-4.44711 -5.2126,-2.17018 -1.6497,1.64971 -1.6247,1.82838 0.4947,3.54464 1.2276,0.99405 3.0835,1.80736 4.1241,1.80736 1.7317,0 1.7821,-0.2697 0.5938,-3.18182 z m -134.62794,33.59526 c -2.07268,-1.74405 -3.61301,-4.43131 -4.72887,-8.25 -1.47597,-5.05106 -1.52871,-7.66384 -0.48769,-24.16344 1.58002,-25.04273 1.48054,-29.00695 -0.88676,-35.33412 -1.11389,-2.97714 -4.26115,-7.96587 -7,-11.0957 -2.7369,-3.12761 -4.97618,-6.30323 -4.97618,-7.05694 0,-2.97987 3.06197,-4.51324 9.01241,-4.51324 3.22826,0 6.17763,-0.49848 6.55417,-1.10772 0.8095,-1.3098 8.14851,-0.37362 10.16037,1.29607 1.5701,1.30307 15.32163,0.3912 18.32282,-1.21499 1.76144,-0.94269 1.95023,-0.70399 1.95023,2.46578 0,4.57294 -3.58835,6.56086 -11.84285,6.56086 h -5.94217 l -0.82531,17.75 c -1.05917,22.77978 -1.11428,55.24678 -0.10523,62 l 0.78445,5.25 h -3.45772 c -2.26014,0 -4.52239,-0.89586 -6.53167,-2.58656 z m -2.0795,-76.91344 v -6.5 h -5.08403 -5.08403 l 3.02069,3.81393 c 1.66138,2.09766 3.57143,5.02266 4.24455,6.5 1.97796,4.34116 2.90282,3.12601 2.90282,-3.81393 z m -106.07692,74.57692 c -2.65884,-2.65883 -2.92342,-3.54022 -2.92682,-9.75 l -0.004,-6.82692 -1.88347,3.0887 c -2.66401,4.36871 -6.88814,7.4113 -10.28936,7.4113 -4.3015,0 -7.40928,-3.70608 -8.82455,-10.52343 -2.18105,-10.50605 0.72256,-21.53691 7.0764,-26.88332 3.14054,-2.64258 3.80883,-2.80025 9.58355,-2.261 4.29937,0.40148 6.32728,0.22064 6.59693,-0.5883 0.65135,-1.95407 8.50774,0.95977 10.40824,3.86029 1.46935,2.24252 1.52407,3.70408 0.49451,13.20865 -1.53906,14.2081 -1.45783,19.41116 0.33951,21.74598 1.45329,1.88789 1.57226,1.85654 4.33757,-1.14286 3.32384,-3.60521 8.77952,-16.1594 9.52405,-21.91601 0.28454,-2.2 0.8063,-8.95 1.15947,-15 0.74348,-12.73605 2.95158,-24.75684 5.16934,-28.14156 1.84005,-2.80827 5.31335,-3.06104 8.98691,-0.65404 7.40777,4.85376 6.84085,18.78428 -1.3404,32.93706 -2.49873,4.32256 -4.30879,15.43214 -4.32363,26.53711 -0.009,6.60876 1.86151,9.49704 5.04621,7.79264 2.11011,-1.1293 8.69371,-14.3488 11.44016,-22.97121 2.03915,-6.40187 3.18182,-8.00849 4.06287,-5.71249 0.7383,1.92397 -3.66825,16.02544 -7.16262,22.92126 -3.13483,6.18628 -8.69413,12.3613 -12.18506,13.53461 -6.28397,2.11205 -11.44611,-2.41629 -11.61191,-10.18622 -0.0535,-2.50616 -0.32301,-4.55677 -0.59896,-4.55691 -0.27594,-1.4e-4 -1.51757,1.91225 -2.75916,4.24975 -2.82048,5.31 -7.70427,10.59615 -10.91872,11.81829 -4.07823,1.55053 -6.33328,1.07267 -9.39732,-1.99137 z m -10.0657,-11.62274 c 2.98933,-3.80031 8.10843,-17.97734 8.29765,-22.9798 0.0912,-2.4106 -0.4115,-5.07848 -1.11707,-5.92864 -1.74187,-2.09883 -5.74973,-1.95282 -6.92996,0.25247 -2.01138,3.75828 -5.108,18.27856 -5.108,23.95174 0,7.97183 1.29816,9.22905 4.85738,4.70423 z m 51.08153,-48.26992 c 0.0336,-1.82366 -0.45958,-4.28862 -1.09595,-5.4777 -1.13082,-2.11295 -1.17456,-2.11713 -1.92972,-0.18426 -0.42497,1.08774 -0.75813,6.0277 -0.74037,10.9777 l 0.0323,9 1.83632,-5.5 c 1.00997,-3.025 1.86381,-6.99208 1.89741,-8.81574 z m 119.2836,11.25904 c -5.60164,-3.92354 0.87859,-7.2673 8.46243,-4.36654 l 2.8151,1.07676 -2.8058,2.42324 c -3.26069,2.81614 -5.37895,3.03281 -8.47173,0.86654 z m 78.57663,-37.47606 c -5.6913,-0.97872 -11.2024,-5.16635 -13.649,-10.37115 -4.2406,-9.02166 -2.1095,-23.44947 4.9511,-33.51896 l 3.1013,-4.42287 -2.7852,-5.82713 c -1.5318,-3.20492 -2.9312,-5.82713 -3.1099,-5.82713 -0.1786,0 -2.1025,1.28781 -4.2754,2.86181 -2.1728,1.574 -5.2652,3.40635 -6.872,4.07191 -2.4903,1.0315 -3.0156,1.91993 -3.5595,6.01977 -1.1933,8.99595 -3.5319,14.89015 -7.6077,19.17471 -3.7919,3.9861 -4.1102,4.11498 -9.0012,3.64502 -6.4368,-0.61849 -11.5494,-4.56374 -14.9916,-11.56855 -1.375,-2.79805 -2.7606,-5.11376 -3.0791,-5.14602 -0.3185,-0.0323 -1.6685,2.27508 -3,5.12741 -5.1219,10.97194 -11.23493,16.80275 -17.62389,16.8102 -4.99461,0.006 -8.09246,-1.94218 -10.28229,-6.46578 -3.2787,-6.77288 -2.83553,-15.57799 2.15306,-42.77782 0.99496,-5.42492 0.98868,-6.99285 -0.032,-8 -1.01996,-1.00642 -1.83836,-0.61935 -4.16323,1.96899 -2.98525,3.32356 -7.32674,15.9494 -13.82194,40.19665 -3.36871,12.57578 -4.66759,14.67073 -8.49959,13.70896 -3.9843,-0.99999 -6.54482,-5.59103 -7.40191,-13.2717 l -0.76505,-6.85556 -3.89826,6.94181 c -4.43022,7.88911 -10.58477,14.98916 -14.94968,17.24634 -3.4275,1.77243 -10.70391,1.32634 -13.29813,-0.81525 -3.21421,-2.65341 -5.5224,-9.70153 -5.30946,-16.21255 0.11081,-3.38819 0.14972,-6.54871 0.0865,-7.02336 -0.0633,-0.47466 -1.57752,1.31336 -3.36502,3.97338 -6.90778,10.27961 -15.86725,12.32244 -21.89753,4.99281 -5.50509,-6.69128 -6.39948,-27.36002 -1.63434,-37.76847 5.40534,-11.8068 12.47229,-16.13914 22.73584,-13.938 6.66272,1.4289 7.04603,1.40253 7.04603,-0.48461 0,-1.31221 0.73786,-1.4653 4.25,-0.88175 10.25459,1.70382 13.36359,5.9634 12.34448,16.91294 -2.27501,24.44323 -2.60321,31.81057 -1.58547,35.59016 2.01684,7.49 6.54813,4.67949 12.95206,-8.03345 7.45135,-14.79226 8.37262,-18.56366 7.81892,-32.00808 l -0.49394,-11.99192 h 3.90661 c 9.35504,0 13.3553,5.70334 12.32504,17.57234 -0.3546,4.08521 -0.45146,7.42766 -0.21523,7.42766 0.23622,0 1.38099,-2.60956 2.54393,-5.79902 5.64933,-15.49383 16.24569,-23.422 22.95288,-17.1733 3.2949,3.06966 3.65313,6.25767 2.35664,20.97232 -2.62533,29.79643 -0.83485,38.13124 6.49827,30.25 4.1008,-4.40734 9.2375,-15.61289 11.9483,-26.06511 3.7074,-14.29482 8.2156,-20.98292 15.9319,-23.63566 10.3516,-3.5587 20.4656,5.86342 20.4656,19.0656 0,1.86185 0.3728,3.38517 0.8285,3.38517 1.1344,0 10.1547,-6.0288 10.2404,-6.84424 0.038,-0.36067 0.1504,-4.04221 0.25,-8.18121 0.149,-6.19169 0.5938,-8.05263 2.51,-10.5 2.4945,-3.186 9.7367,-8.47455 11.6052,-8.47455 0.7616,0 1.1369,3.03234 1.1447,9.25 0.011,8.8956 2.6312,21.75 4.433,21.75 0.4116,0 4.2898,-1.78328 8.6182,-3.96283 9.3042,-4.68505 15.9667,-6.60618 19.679,-5.67445 4.0501,1.0165 3.2674,2.29095 -2.559,4.16695 -5.5486,1.78653 -19.3686,8.75472 -21.5276,10.85439 -1.0339,1.00548 -0.7827,2.36142 1.3167,7.10862 9.0217,20.39953 11.1245,33.46135 6.5727,40.8263 -3.7148,6.01075 -10.7497,8.94886 -18.3127,7.64826 z m 3.839,-12.64358 c 1.0658,-2.55076 1.3284,-5.06132 0.8577,-8.19992 -0.9875,-6.58523 -6.517,-21.27645 -7.8571,-20.87571 -2.0235,0.60506 -6.4869,10.68835 -7.1773,16.2143 -1.176,9.4122 3.0139,16.53767 9.7245,16.53767 2.4141,0 3.1805,-0.63283 4.4522,-3.67634 z m -39.2106,-18.66031 c 2.4018,-2.40174 4.5725,-10.06071 4.5725,-16.13312 0,-2.99588 -0.362,-3.44786 -3.25,-4.05865 -1.7875,-0.37803 -4.6591,-1.54246 -6.3813,-2.58761 l -3.1312,-1.90029 -0.6051,2.25816 c -1.0296,3.84216 -0.6933,16.77183 0.4961,19.0739 1.5093,2.92147 3.9745,5.68426 5.0719,5.68426 0.4898,0 1.942,-1.05149 3.2271,-2.33665 z m -136.71471,-2.91335 c 4.33487,-4.73132 11.46271,-23.02023 12.68897,-32.55788 0.65435,-5.08942 0.54297,-5.44735 -2.7062,-8.69652 -4.50386,-4.50386 -6.8667,-3.84992 -9.67476,2.6776 -4.51678,10.49953 -8.16602,35.78486 -5.71182,39.5768 1.20859,1.86738 3.09686,1.51795 5.40381,-1 z m 141.28721,-24.78212 c 0,-0.56766 -0.6521,-2.59266 -1.449,-4.5 -1.5326,-3.66791 -4.9093,-4.70966 -7.351,-2.26788 -1.9872,1.98717 -1.3749,3.72277 2.05,5.81096 3.5231,2.1481 6.75,2.60556 6.75,0.95692 z M 169.68762,291.9758 c -2.119,-2.55323 -3.07602,-17.83727 -3.07505,-49.10987 0.002,-50.37581 2.72604,-70.5 9.54448,-70.5 7.42242,0 13.01173,21.38156 17.98784,68.81136 0.36419,3.47125 0.85257,6.12094 1.08531,5.88821 1.88597,-1.88598 14.36623,-71.22213 14.36623,-79.814 0,-5.01633 0.25316,-5.72015 2.25,-6.25528 3.78349,-1.01394 5.94061,-0.71643 10.37702,1.4312 6.77483,3.27964 6.83119,3.78383 4.86272,43.50051 -1.83239,36.97099 -1.67854,76.88298 0.31485,81.67932 1.74277,4.19333 0.61042,5.75925 -4.16158,5.75494 -8.5137,-0.008 -13.48863,-5.49436 -16.30895,-17.98658 -1.62639,-7.20388 -1.60333,-8.72463 0.56624,-37.34536 1.24392,-16.40962 2.07275,-30.02461 1.84183,-30.25552 -0.23092,-0.23092 -0.97962,2.84513 -1.66378,6.83567 -1.63487,9.53573 -9.01714,39.70043 -10.34128,42.25553 -1.44117,2.78091 -2.72736,3.46701 -6.53252,3.48469 -4.14052,0.0192 -7.87856,-3.51414 -8.59347,-8.12296 -0.2868,-1.84895 -1.69513,-13.48673 -3.12961,-25.86173 -1.43449,-12.375 -2.9992,-23.4 -3.47713,-24.5 -0.5103,-1.17448 -0.89692,16.2378 -0.93666,42.1849 -0.04,26.11047 -0.46662,45.23419 -1.04293,46.75 -1.09552,2.88145 -2.23487,3.22177 -3.93356,1.17497 z"
       id="path364"
       sodipodi:nodetypes="cssscssssscssssssssssssssssssssssccsssssssccsssssssssccscsssssssssssssssssssssssssssssssscsscssscccssscccsssssssssssssssssssssssssccsssssssssscssssscssssscsssssssssssssssssscssssssssssssssscsssssssssssssssssssssssssssssssssscsssssssssssssssscsssssssscssssssssssss" /></g></svg>
