<?xml version="1.0" encoding="UTF-8"?>
<!-- Created with Inkscape (http://www.inkscape.org/) -->
<svg width="512" height="512" version="1.1" viewBox="0 0 512 512" xml:space="preserve" xmlns="http://www.w3.org/2000/svg"><g transform="translate(446.14 927.95)"><g transform="matrix(4.7186 0 0 4.0896 1771.6 2157.9)"><path d="m-443.51-655.3c-2.9757-2.9757-5.0756-6.5798-6.2746-9.0566-1.199-2.4769-3.438-7.0163-4.0232-10.339-0.7343-4.1686-1.1678-8.0615-0.46723-12.56 0.5581-3.5851 2.5106-8.3038 3.6676-10.679 1.157-2.3749 3.0178-6.7764 4.6578-9.9684 1.6399-3.1921 3.2926-5.8474 3.8212-5.5206 0.5604 0.3464-1.248 4.374-2.701 7.6586-2.4911 5.6327-1.32 4.2007 1.3886 7.0278 1.4897 1.5549 3.0132 2.8271 3.3855 2.8271s0.9638-2.0922 1.3143-4.6494 2.7741-9.3029 5.3859-14.99c2.6117-5.6875 5.3593-10.345 6.1056-10.351 0.9048-0.01 1.1137 0.5736 0.627 1.7404-0.4015 0.9625-1.1977 2.9196-1.7693 4.3492-0.817 2.0431-0.6784 3.1129 0.6475 5 1.6868 2.4008 1.8904 3.0267 2.514 0.65588 0.343-1.3037 1.6775-5.3046 3.2145-8.1259 1.5369-2.8213 4.2827-8.1648 6.1018-11.874 1.8192-3.7096 3.87-6.7471 4.5575-6.75 0.6875 0 1.25 0.1751 1.25 0.3955 0 0.2203-2.4341 4.1288-3.7669 7.0055-2.4233 5.2304-1.0796 3.8559 1.0937 7.2125 1.1953 1.8461 2.6334 3.3621 3.1958 3.3689 0.5624 0.01 1.8745-1.5695 2.9158-3.503 1.0412-1.9334 3.7768-5.0589 6.0791-6.9455 2.3024-1.8866 5.7722-4.1865 7.7108-5.111 2.6582-1.2676 4.2149-3.1248 6.3321-7.5545 1.5441-3.2305 3.4072-5.8736 4.1403-5.8736 0.9643 0 0.6759 1.3138-1.0427 4.75-2.1102 4.2192-2.3217 5.7246-1.8928 13.473 0.3555 6.4241 0.055 10.031-1.1412 13.688-0.8932 2.7308-1.624 5.218-1.624 5.5272 0 0.3091 1.2817 0.5621 2.8482 0.5621 2.3951 0 3.141-0.6759 4.6898-4.25 1.013-2.3375 2.2573-4.8076 2.7652-5.489 0.5079-0.6815 1.3087-1.0009 1.7796-0.7099s-0.2173 2.8736-1.5293 5.739c-1.3119 2.8654-2.8813 7.0892-3.4875 9.3863-0.6062 2.297-2.669 6.5047-4.5841 9.3504-1.915 2.8458-3.4819 5.3539-3.4819 5.5736 0 0.2198 1.3477 0.3996 2.9949 0.3996 2.5694 0 3.2954-0.6393 5.1101-4.5 1.1634-2.475 2.5157-4.5 3.0052-4.5 0.4894 0 0.8898 0.4679 0.8898 1.0398s-0.8361 2.7094-1.8581 4.75c-1.0219 2.0406-2.182 5.0602-2.5779 6.7102s-1.6896 4.575-2.8747 6.5c-1.1852 1.925-3.6882 5.1994-5.5623 7.2764s-3.2318 3.9258-3.0172 4.1084c0.2146 0.1827 2.0591 0.5895 4.0988 0.904 3.6773 0.5672 3.7295 0.5262 6.1947-4.8584 1.3673-2.9868 2.9913-5.4304 3.6088-5.4304 0.6997 0 0.8657 0.8476 0.4406 2.25-0.3752 1.2375-1.4967 3.825-2.4923 5.75-0.9955 1.925-2.0666 4.6941-2.3801 6.1537s-2.2943 4.8346-4.4016 7.5c-2.1074 2.6654-5.5455 5.7529-7.4284 7.1884-1.883 1.4354-5.6828 3.8346-8.5832 5.351-3.5025 1.8313-7.2694 2.7726-11.405 3.0865-3.4246 0.2599-8.1199-0.2781-10.32-0.8402-2.2-0.5619-4.913-1.6127-6.1005-1.9762-9.0983-3.2367-4.5669-1.3494-10.742-7.0718zm18.985-8.6995c1.8563-2.0512 3.1156-2.4058 1.2239-3.7889-0.0789-0.0577 9.7733-16.659 10.165-17.668 0.97543-2.5146-2.8624-3.0008-3.8889-1.45-0.81239 1.2274-10.147 17.456-10.198 17.456-0.4449 0-0.88383 2.117-0.88383 4.042s0.3803 3.5 0.845 3.5c0.4648 0 1.6963-0.9406 2.7368-2.0903z" fill="#edb637"/><path d="m-436.95-646.93c-0.0372-0.83608-0.96587-1.9782-0.96587-1.9782l-5.4105-5.4105c-9.2-9.2-12.862-20.31-10.884-33.018 0.98536-6.3291 1.9358-8.7571 8.2039-20.958 3.8054-7.4072 5.7717-6.5784 2.4127 1.0169l-2.491 5.6327 2.7085 2.8271c1.4897 1.5549 3.0132 2.8271 3.3855 2.8271s0.96376-2.0922 1.3143-4.6494c0.79418-5.7942 9.6523-25.328 11.492-25.341 0.90479-6e-3 1.1137 0.57351 0.62699 1.7404-2.8028 6.7191-2.8272 6.922-1.1218 9.3492l1.6868 2.4008 0.62361-2.3704c0.34299-1.3037 1.8811-4.6787 3.418-7.5 1.5369-2.8213 4.2828-8.1648 6.1019-11.874 1.8191-3.7096 3.87-6.7471 4.5575-6.75 1.6344-7e-3 1.6434-0.0529-1.1733 6.0265l-2.4233 5.2304 2.1733 3.3565c1.1953 1.8461 2.6334 3.3621 3.1959 3.3689 0.56242 7e-3 1.8745-1.5695 2.9157-3.503 2.1344-3.9633 8.5129-9.54 13.79-12.056 2.6582-1.2676 4.2149-3.1248 6.3321-7.5545 1.544-3.2305 3.4072-5.8737 4.1403-5.8737 0.9643 0 0.67589 1.3138-1.0427 4.75-2.1102 4.2192-2.3217 5.7247-1.8929 13.473 0.35558 6.424 0.0548 10.031-1.1412 13.688-2.0716 6.3336-2.1207 6.0892 1.2242 6.0892 2.3952 0 3.141-0.67591 4.6899-4.25 2.2989-5.3049 3.4503-6.8753 4.5447-6.1988 0.47088 0.29102-0.21729 2.8736-1.5292 5.739-1.312 2.8654-2.8814 7.0892-3.4875 9.3862-0.60618 2.297-2.669 6.5047-4.5841 9.3505-1.915 2.8458-3.4819 5.3539-3.4819 5.5736s1.3477 0.39951 2.9949 0.39951c2.5694 0 3.2954-0.63924 5.1101-4.5 1.1634-2.475 2.5157-4.5 3.0051-4.5 1.36 0 1.0735 1.7129-0.96823 5.7898-1.022 2.0406-2.182 5.0602-2.578 6.7102-0.90771 3.7829-4.0511 8.9156-8.437 13.776-1.8741 2.077-3.2318 3.9258-3.0172 4.1085 0.21463 0.18261 2.0591 0.5894 4.0988 0.90397 3.6773 0.56713 3.7295 0.52616 6.1947-4.8585 1.3674-2.9867 2.9913-5.4304 3.6088-5.4304 1.3243 0 0.57529 2.9205-2.0516 8-0.99554 1.925-2.0666 4.6942-2.3801 6.1537-0.70682 3.2903-7.0794 11.467-11.657 14.956-11.829 9.0178-22.085 10.802-36.583 6.3652-1.7944-0.54917-3.767-0.0579-5.4794 2.853-2.5338 4.3072-3.0968 5.5807-4.9606 9.1406-1.88 4.3893-1.7411 4.1525-3.5071 4.5945-0.47464 0.11877 1.2734-1.6154 2.2304-3.5486 1.4911-3.0121 4.0239-6.9738 4.6325-8.3338 0.85477-1.4923 1.9225-3.1554 1.8351-5.1201zm32.567-4.1628c4.1197-1.9622 8.0098-4.9328 11.75-8.9726 3.0752-3.3216 5.5913-6.4433 5.5913-6.937 0-0.85722-2.2586-1.3832-10-2.3285-5.5933-0.68303-15.124 1.2394-20 4.0344-4.9109 2.8148-14 11.773-14 13.798 0 1.5461 4.2798 3.3276 9 3.7463 6.4196 0.56952 11.445-0.38118 17.659-3.3408zm-28.539-5.6479c0.75898-2.6125 1.3686-8.1386 1.3548-12.28-0.0209-6.2598-0.5178-8.5375-2.945-13.5-2.6766-5.4724-10.784-15.47-12.545-15.47-2.0162 0-3.4845 7.1634-3.4845 17 0 9.162 0.30549 11.073 2.3973 15 2.5727 4.8292 10.879 13.959 12.723 13.984 0.61602 9e-3 1.741-2.122 2.5-4.7345zm19.88-14.25c3.025-1.0641 7.4602-1.9494 9.8561-1.9674 3.3398-0.025 5.2763-0.76149 8.3007-3.1568 4.2787-3.3888 10.346-12.947 8.8185-13.891-1.7057-1.0542-15.643 0.79287-19.094 2.5305-8.2184 4.1375-19.276 18.749-13.964 18.452 0.32083-0.0179 3.0583-0.90326 6.0833-1.9674zm-9.7746-6.75c1.5258-3.43 2.1215-6.8342 2.1439-12.25 0.0328-7.9287-1.6062-12.511-7.0891-19.822-2.4088-3.2116-2.5372-3.2564-3.8724-1.35-1.6828 2.4026-4.4077 12.543-4.4077 16.403 0 1.5462 1.1075 4.4892 2.4611 6.5399s3.1611 5.7536 4.0167 8.2286 1.7589 5.0625 2.0075 5.75c0.89394 2.4725 2.6651 1.1647 4.7401-3.5zm7.5455-7.0625c0.59996-1.7999-1.467-1.4216-2.1645 0.39606-0.37373 0.97391-0.15024 1.4311 0.58051 1.1875 0.6535-0.21783 1.3663-0.93044 1.584-1.5836zm3.39-9.9375c1.8323-3.7206 2.3342-6.3754 2.316-12.25-0.023-7.4421-1.402-11.605-5.7783-17.446-1.3922-1.858-1.5527-1.7603-3.5533 2.1612-1.1524 2.2588-2.5257 6.0227-3.0518 8.3642-0.82103 3.6541-0.62367 4.9141 1.3932 8.8941 1.2923 2.5503 2.6466 6.412 3.0094 8.5816 1.3614 8.1397 2.3458 8.4342 5.6647 1.6948zm9.5682 2.5914c8.9246-2.8451 15.405-8.948 17.77-16.735 0.72054-2.3724 0.67903-2.3876-4.636-1.6945-2.9497 0.38464-7.6332 1.7322-10.408 2.9945-4.9327 2.2442-5.1005 2.465-7.5582 9.9445-1.3824 4.2071-2.3842 7.6493-2.2263 7.6493 0.15799 0 3.3342-0.97135 7.0582-2.1586zm11.961-25.644c1.645-3.9338 3.0037-19.199 1.7085-19.194-3.2753 0.0136-12.415 7.6037-16.106 13.376-2.1048 3.2912-2.376 4.5797-1.7893 8.5 0.38035 2.5414 0.86323 4.8999 1.0731 5.2411 0.20986 0.34122 3.3855-0.55878 7.057-2 5.5245-2.1686 6.9136-3.1898 8.0564-5.9229z" fill="#8f6437"/></g></g></svg>
