<?xml version="1.0" encoding="UTF-8" standalone="no"?>
<!-- Created with Inkscape (http://www.inkscape.org/) -->

<svg
   version="1.1"
   id="svg2"
   width="40.822388"
   height="41.042358"
   viewBox="0 0 40.822388 41.042358"
   sodipodi:docname="favicon50.svg"
   xml:space="preserve"
   inkscape:version="1.2.1 (9c6d41e410, 2022-07-14, custom)"
   inkscape:export-filename="pancito_logo_transparent.png"
   inkscape:export-xdpi="96"
   inkscape:export-ydpi="96"
   xmlns:inkscape="http://www.inkscape.org/namespaces/inkscape"
   xmlns:sodipodi="http://sodipodi.sourceforge.net/DTD/sodipodi-0.dtd"
   xmlns="http://www.w3.org/2000/svg"
   xmlns:svg="http://www.w3.org/2000/svg"><defs
     id="defs6" /><sodipodi:namedview
     id="namedview4"
     pagecolor="#505050"
     bordercolor="#ff17ff"
     borderopacity="1"
     inkscape:showpageshadow="0"
     inkscape:pageopacity="0"
     inkscape:pagecheckerboard="1"
     inkscape:deskcolor="#505050"
     showgrid="false"
     inkscape:zoom="6.9982362"
     inkscape:cx="18.004537"
     inkscape:cy="18.14743"
     inkscape:window-width="1280"
     inkscape:window-height="676"
     inkscape:window-x="1598"
     inkscape:window-y="208"
     inkscape:window-maximized="0"
     inkscape:current-layer="layer2" /><g
     inkscape:groupmode="layer"
     id="layer2"
     inkscape:label="manos"
     style="display:inline"
     transform="translate(446.13522,927.94586)"><g
       id="g1834"
       transform="matrix(0.363375,0,0,0.31494092,-275.14097,-689.86925)"><path
         d="m -443.50864,-655.3001 c -2.9757,-2.9757 -5.07562,-6.57982 -6.27462,-9.05662 -1.199,-2.4769 -3.43795,-7.01628 -4.02315,-10.33888 -0.7343,-4.1686 -1.16783,-8.0615 -0.46723,-12.5595 0.5581,-3.5851 2.51056,-8.30384 3.66756,-10.67864 1.157,-2.3749 3.01783,-6.77641 4.65783,-9.96841 1.6399,-3.1921 3.29261,-5.84735 3.82121,-5.52065 0.5604,0.3464 -1.24805,4.37399 -2.70105,7.65859 -2.4911,5.6327 -1.32005,4.20071 1.38855,7.02781 1.4897,1.5549 3.0132,2.8271 3.3855,2.8271 0.3723,0 0.9638,-2.0922 1.3143,-4.6494 0.3505,-2.5572 2.7741,-9.3029 5.3859,-14.9904 2.6117,-5.6875 5.3593,-10.3452 6.1056,-10.3506 0.9048,-0.01 1.1137,0.5736 0.627,1.7404 -0.4015,0.9625 -1.1977,2.9196 -1.7693,4.3492 -0.817,2.0431 -0.6784,3.1129 0.6475,5 1.6868,2.4008 1.89039,3.02668 2.51399,0.65588 0.343,-1.3037 1.67751,-5.30458 3.21451,-8.12588 1.5369,-2.8213 4.2827,-8.1648 6.1018,-11.8744 1.8192,-3.7096 3.87,-6.7471 4.5575,-6.75 0.6875,0 1.25,0.1751 1.25,0.3955 0,0.2203 -2.43406,4.12876 -3.76686,7.00546 -2.4233,5.2304 -1.07964,3.85594 1.09366,7.21254 1.1953,1.8461 2.6334,3.3621 3.1958,3.3689 0.5624,0.01 1.8745,-1.5695 2.9158,-3.503 1.0412,-1.9334 3.7768,-5.0589 6.0791,-6.9455 2.3024,-1.8866 5.7722,-4.1865 7.7108,-5.111 2.6582,-1.2676 4.2149,-3.1248 6.3321,-7.5545 1.5441,-3.2305 3.4072,-5.8736 4.1403,-5.8736 0.9643,0 0.6759,1.3138 -1.0427,4.75 -2.1102,4.2192 -2.3217,5.7246 -1.8928,13.4728 0.3555,6.4241 0.055,10.0314 -1.1412,13.6879 -0.8932,2.7308 -1.624,5.218 -1.624,5.5272 0,0.3091 1.2817,0.5621 2.8482,0.5621 2.3951,0 3.141,-0.6759 4.6898,-4.25 1.013,-2.3375 2.2573,-4.8076 2.7652,-5.489 0.5079,-0.6815 1.3087,-1.0009 1.7796,-0.7099 0.4709,0.291 -0.2173,2.8736 -1.5293,5.739 -1.3119,2.8654 -2.8813,7.0892 -3.4875,9.3863 -0.6062,2.297 -2.669,6.5047 -4.5841,9.3504 -1.915,2.8458 -3.4819,5.3539 -3.4819,5.5736 0,0.2198 1.3477,0.3996 2.9949,0.3996 2.5694,0 3.2954,-0.6393 5.1101,-4.5 1.1634,-2.475 2.5157,-4.5 3.0052,-4.5 0.4894,0 0.8898,0.4679 0.8898,1.0398 0,0.5719 -0.8361,2.7094 -1.8581,4.75 -1.0219,2.0406 -2.182,5.0602 -2.5779,6.7102 -0.3959,1.65 -1.6896,4.575 -2.8747,6.5 -1.1852,1.925 -3.6882,5.1994 -5.5623,7.2764 -1.8741,2.077 -3.2318,3.9258 -3.0172,4.1084 0.2146,0.1827 2.0591,0.5895 4.0988,0.904 3.6773,0.5672 3.7295,0.5262 6.1947,-4.8584 1.3673,-2.9868 2.9913,-5.4304 3.6088,-5.4304 0.6997,0 0.8657,0.8476 0.4406,2.25 -0.3752,1.2375 -1.4967,3.825 -2.4923,5.75 -0.9955,1.925 -2.0666,4.6941 -2.3801,6.1537 -0.3135,1.4596 -2.2943,4.8346 -4.4016,7.5 -2.1074,2.6654 -5.54552,5.75289 -7.42842,7.18839 -1.883,1.4354 -5.68277,3.83455 -8.58317,5.35095 -3.5025,1.8313 -7.26944,2.77259 -11.40524,3.08649 -3.4246,0.2599 -8.11991,-0.2781 -10.31991,-0.8402 -2.2,-0.5619 -4.91302,-1.61273 -6.10052,-1.97623 -9.0983,-3.2367 -4.5669,-1.34939 -10.74239,-7.07179 z m 18.9849,-8.6995 c 1.8563,-2.0512 3.11559,-2.40581 1.22386,-3.78893 -0.0789,-0.0577 9.77326,-16.65923 10.16468,-17.66831 0.97543,-2.51464 -2.86244,-3.00078 -3.88888,-1.45002 -0.81239,1.22736 -10.1471,17.45552 -10.19753,17.45552 -0.4449,0 -0.88383,2.11704 -0.88383,4.04204 0,1.925 0.3803,3.5 0.845,3.5 0.4648,0 1.6963,-0.9406 2.7368,-2.0903 z"
         style="display:inline;fill:#edb637;fill-opacity:1"
         id="path12091-6"
         sodipodi:nodetypes="csscscscsssscsssssscssscssssssscssssssscsssssssssscsssssscsscccccsssssscc" /><path
         d="m -436.95185,-646.9283 c -0.0372,-0.83608 -0.96587,-1.97815 -0.96587,-1.97815 l -5.41048,-5.41048 c -9.19999,-9.19999 -12.86237,-20.31025 -10.88398,-33.01784 0.98536,-6.32911 1.93579,-8.75712 8.2039,-20.95793 3.80538,-7.40716 5.77173,-6.57842 2.41273,1.01687 l -2.49104,5.63268 2.70853,2.82709 c 1.48969,1.55491 3.01318,2.8271 3.38552,2.8271 0.37234,0 0.96376,-2.09224 1.31426,-4.64943 0.79418,-5.79422 9.65226,-25.32784 11.49156,-25.34092 0.90479,-0.006 1.11373,0.57351 0.62699,1.74035 -2.80281,6.71907 -2.82716,6.92203 -1.12181,9.34921 l 1.68681,2.40079 0.62361,-2.37035 c 0.34299,-1.30369 1.8811,-4.67869 3.41804,-7.5 1.53693,-2.82131 4.28278,-8.16479 6.10189,-11.87441 1.81912,-3.70962 3.86998,-6.74712 4.55748,-6.75 1.6344,-0.007 1.64336,-0.0529 -1.17327,6.02654 l -2.42327,5.23038 2.17327,3.35654 c 1.1953,1.8461 2.63344,3.36211 3.19587,3.36892 0.56242,0.007 1.8745,-1.56953 2.91573,-3.50296 2.13439,-3.96332 8.51293,-9.54004 13.78997,-12.05648 2.6582,-1.26761 4.21488,-3.12481 6.33208,-7.5545 1.54405,-3.23053 3.4072,-5.87368 4.14033,-5.87368 0.9643,0 0.67589,1.3138 -1.04271,4.75 -2.11024,4.21925 -2.32174,5.72466 -1.89287,13.47287 0.35558,6.42403 0.0548,10.03137 -1.14115,13.6879 -2.07161,6.33358 -2.12073,6.08923 1.22415,6.08923 2.39516,0 3.14103,-0.67591 4.68989,-4.25 2.2989,-5.30486 3.45026,-6.87528 4.54474,-6.19885 0.47088,0.29102 -0.21729,2.87356 -1.52925,5.73899 -1.31197,2.86542 -2.88136,7.08923 -3.48754,9.38625 -0.60618,2.29701 -2.669,6.50473 -4.58406,9.35049 -1.91505,2.84575 -3.48191,5.35388 -3.48191,5.57361 0,0.21973 1.34769,0.39951 2.99488,0.39951 2.56944,0 3.29535,-0.63924 5.11012,-4.5 1.16339,-2.475 2.5157,-4.5 3.00513,-4.5 1.35999,0 1.07354,1.71292 -0.96823,5.78984 -1.02196,2.04059 -2.18203,5.06016 -2.57795,6.71016 -0.90771,3.7829 -4.05111,8.91565 -8.43697,13.77643 -1.8741,2.07703 -3.23185,3.92584 -3.01722,4.10846 0.21463,0.18261 2.05909,0.5894 4.0988,0.90397 3.67728,0.56713 3.72951,0.52616 6.19467,-4.85846 1.36737,-2.98672 2.99134,-5.4304 3.60883,-5.4304 1.32427,0 0.57529,2.9205 -2.05164,8 -0.99554,1.925 -2.0666,4.69418 -2.38014,6.15374 -0.70682,3.29033 -7.07941,11.46668 -11.65674,14.95616 -11.82913,9.01782 -22.08457,10.80222 -36.58257,6.36518 -1.79439,-0.54917 -3.76704,-0.0579 -5.47942,2.85297 -2.53384,4.30723 -3.09682,5.58072 -4.96056,9.14059 -1.88001,4.38929 -1.74106,4.15254 -3.50707,4.59446 -0.47464,0.11877 1.2734,-1.61541 2.23038,-3.54859 1.49108,-3.01211 4.02388,-6.97378 4.63247,-8.33379 0.85477,-1.49232 1.92248,-3.15543 1.83509,-5.12006 z m 32.56684,-4.16277 c 4.11969,-1.96216 8.00982,-4.93276 11.75,-8.97259 3.07522,-3.32162 5.59132,-6.44326 5.59132,-6.93699 0,-0.85722 -2.25865,-1.38315 -10,-2.32849 -5.59334,-0.68303 -15.12354,1.23942 -20,4.03444 -4.91091,2.81477 -14,11.77277 -14,13.79808 0,1.54606 4.27982,3.32757 9,3.74632 6.41959,0.56952 11.44481,-0.38118 17.65868,-3.34077 z m -28.53864,-5.64789 c 0.75898,-2.6125 1.36863,-8.13865 1.35478,-12.28033 -0.0209,-6.25984 -0.5178,-8.53751 -2.94503,-13.5 -2.67664,-5.47242 -10.78403,-15.46967 -12.54531,-15.46967 -2.0162,0 -3.48448,7.16342 -3.48448,17 0,9.16195 0.30549,11.07345 2.39729,15 2.57266,4.8292 10.87868,13.95894 12.72275,13.98449 0.61602,0.009 1.74102,-2.12199 2.5,-4.73449 z m 19.87996,-14.25 c 3.025,-1.06409 7.46024,-1.9494 9.8561,-1.96735 3.33985,-0.025 5.27633,-0.76149 8.30069,-3.15683 4.27867,-3.38877 10.34643,-12.94678 8.81853,-13.89107 -1.7057,-1.05418 -15.64274,0.79287 -19.09425,2.53053 -8.21837,4.13754 -19.2765,18.74936 -13.9644,18.45207 0.32083,-0.0179 3.05833,-0.90326 6.08333,-1.96735 z m -9.77463,-6.75 c 1.52575,-3.43001 2.12153,-6.83419 2.14392,-12.25 0.0328,-7.92873 -1.60618,-12.5114 -7.08912,-19.82173 -2.40877,-3.21159 -2.53718,-3.25636 -3.87244,-1.35 -1.68285,2.40261 -4.40773,12.54318 -4.40773,16.40327 0,1.54624 1.1075,4.48919 2.46111,6.5399 1.35361,2.05071 3.16111,5.75356 4.01667,8.22856 0.85556,2.475 1.75894,5.0625 2.00751,5.75 0.89394,2.4725 2.66512,1.1647 4.74008,-3.5 z m 7.54546,-7.0625 c 0.59996,-1.79986 -1.467,-1.42165 -2.16452,0.39606 -0.37373,0.97391 -0.15024,1.43108 0.58051,1.1875 0.6535,-0.21783 1.36631,-0.93044 1.58401,-1.58356 z m 3.38996,-9.9375 c 1.83226,-3.72059 2.33419,-6.37539 2.31603,-12.25 -0.023,-7.44211 -1.40195,-11.60542 -5.77831,-17.44582 -1.39221,-1.85795 -1.55269,-1.76034 -3.55329,2.16116 -1.15237,2.25884 -2.52566,6.02272 -3.05175,8.36418 -0.82103,3.65412 -0.62367,4.91407 1.39315,8.89407 1.29232,2.55028 2.64657,6.41201 3.00944,8.58164 1.36138,8.13972 2.34579,8.43424 5.66473,1.69477 z m 9.56821,2.59145 c 8.92465,-2.84513 15.40485,-8.94799 17.77002,-16.73528 0.72054,-2.37239 0.67903,-2.38756 -4.63598,-1.69448 -2.94967,0.38464 -7.63317,1.73218 -10.40777,2.99453 -4.93273,2.24423 -5.10053,2.465 -7.55825,9.94448 -1.38243,4.20711 -2.38425,7.6493 -2.22627,7.6493 0.15799,0 3.3342,-0.97135 7.05825,-2.15855 z m 11.96075,-25.64393 c 1.64495,-3.93384 3.00374,-19.19917 1.70847,-19.19378 -3.27528,0.0136 -12.41465,7.60373 -16.10573,13.37554 -2.10475,3.29124 -2.37598,4.57971 -1.78928,8.5 0.38035,2.5414 0.86323,4.8999 1.07308,5.24112 0.20986,0.34122 3.38552,-0.55878 7.05704,-2 5.52449,-2.16859 6.91358,-3.18982 8.05642,-5.92288 z"
         style="display:inline;fill:#8f6437;fill-opacity:1"
         id="path1761"
         sodipodi:nodetypes="acsssscssscsscssssscssssssssssssssssssssssssssssssscsscassssssssssssscssssssssssssssssssssssssssssssssssssssssssss" /></g></g></svg>
